<?xml version="1.0" encoding="UTF-8"?><svg xmlns="http://www.w3.org/2000/svg" xmlns:xlink="http://www.w3.org/1999/xlink" clip-rule="evenodd" stroke-miterlimit="10" viewBox="0 0 1024 768"><desc>SVG generated by Keynote</desc><defs></defs><g transform="matrix(1.00, 0.00, -0.00, -1.00, 0.0, 768.0)"><path d="M 0.0 0.0 L 1024.0 0.0 L 1024.0 768.0 L 0.0 768.0 Z M 0.0 0.0 " fill="#000000"></path><text xml:space="preserve" font-family="Helvetica-Light,Helvetica" font-size="80.0" fill="#FEFFFF" transform="matrix(1.00, 0.00, -0.00, -1.00, 314.2, 633.4)">l</text><text xml:space="preserve" font-family="Helvetica-Light,Helvetica" font-size="80.0" fill="#FEFFFF" transform="matrix(1.00, 0.00, -0.00, -1.00, 331.9, 633.4)">o</text><text xml:space="preserve" font-family="Helvetica-Light,Helvetica" font-size="80.0" fill="#FEFFFF" transform="matrix(1.00, 0.00, -0.00, -1.00, 376.4, 633.4)">o</text><text xml:space="preserve" font-family="Helvetica-Light,Helvetica" font-size="80.0" fill="#FEFFFF" transform="matrix(1.00, 0.00, -0.00, -1.00, 420.9, 633.4)">p</text><text xml:space="preserve" font-family="Helvetica-Light,Helvetica" font-size="80.0" fill="#FEFFFF" transform="matrix(1.00, 0.00, -0.00, -1.00, 469.8, 633.4)">b</text><text xml:space="preserve" font-family="Helvetica-Light,Helvetica" font-size="80.0" fill="#FEFFFF" transform="matrix(1.00, 0.00, -0.00, -1.00, 518.6, 633.4)">a</text><text xml:space="preserve" font-family="Helvetica-Light,Helvetica" font-size="80.0" fill="#FEFFFF" transform="matrix(1.00, 0.00, -0.00, -1.00, 563.1, 633.4)">c</text><text xml:space="preserve" font-family="Helvetica-Light,Helvetica" font-size="80.0" fill="#FEFFFF" transform="matrix(1.00, 0.00, -0.00, -1.00, 607.6, 633.4)">k</text><text xml:space="preserve" font-family="Helvetica-Light,Helvetica" font-size="80.0" fill="#FEFFFF" transform="matrix(1.00, 0.00, -0.00, -1.00, 647.6, 633.4)"> </text><text xml:space="preserve" font-family="Helvetica-Light,Helvetica" font-size="80.0" fill="#FEFFFF" transform="matrix(1.00, 0.00, -0.00, -1.00, 669.8, 633.4)">?</text><text xml:space="preserve" font-family="Helvetica-Light,Helvetica" font-size="27.9" fill="#FEFFFF" transform="matrix(1.00, 0.00, -0.00, -1.00, 79.0, 526.4)">•</text><text xml:space="preserve" font-family="Helvetica-Light,Helvetica" font-size="37.2" fill="#FEFFFF" transform="matrix(1.00, 0.00, -0.00, -1.00, 113.3, 522.6)">N</text><text xml:space="preserve" font-family="Helvetica-Light,Helvetica" font-size="37.2" fill="#FEFFFF" transform="matrix(1.00, 0.00, -0.00, -1.00, 140.2, 522.6)">o</text><text xml:space="preserve" font-family="Helvetica-Light,Helvetica" font-size="37.2" fill="#FEFFFF" transform="matrix(1.00, 0.00, -0.00, -1.00, 160.9, 522.6)">d</text><text xml:space="preserve" font-family="Helvetica-Light,Helvetica" font-size="37.2" fill="#FEFFFF" transform="matrix(1.00, 0.00, -0.00, -1.00, 183.6, 522.6)">e</text><text xml:space="preserve" font-family="Helvetica-Light,Helvetica" font-size="37.2" fill="#FEFFFF" transform="matrix(1.00, 0.00, -0.00, -1.00, 204.4, 522.6)">J</text><text xml:space="preserve" font-family="Helvetica-Light,Helvetica" font-size="37.2" fill="#FEFFFF" transform="matrix(1.00, 0.00, -0.00, -1.00, 223.0, 522.6)">S</text><text xml:space="preserve" font-family="Helvetica-Light,Helvetica" font-size="37.2" fill="#FEFFFF" transform="matrix(1.00, 0.00, -0.00, -1.00, 245.7, 522.6)"> </text><text xml:space="preserve" font-family="Helvetica-Light,Helvetica" font-size="37.2" fill="#FEFFFF" transform="matrix(1.00, 0.00, -0.00, -1.00, 256.1, 522.6)">F</text><text xml:space="preserve" font-family="Helvetica-Light,Helvetica" font-size="37.2" fill="#FEFFFF" transform="matrix(1.00, 0.00, -0.00, -1.00, 276.8, 522.6)">r</text><text xml:space="preserve" font-family="Helvetica-Light,Helvetica" font-size="37.2" fill="#FEFFFF" transform="matrix(1.00, 0.00, -0.00, -1.00, 289.2, 522.6)">a</text><text xml:space="preserve" font-family="Helvetica-Light,Helvetica" font-size="37.2" fill="#FEFFFF" transform="matrix(1.00, 0.00, -0.00, -1.00, 309.9, 522.6)">m</text><text xml:space="preserve" font-family="Helvetica-Light,Helvetica" font-size="37.2" fill="#FEFFFF" transform="matrix(1.00, 0.00, -0.00, -1.00, 340.9, 522.6)">e</text><text xml:space="preserve" font-family="Helvetica-Light,Helvetica" font-size="37.2" fill="#FEFFFF" transform="matrix(1.00, 0.00, -0.00, -1.00, 361.6, 522.6)">w</text><text xml:space="preserve" font-family="Helvetica-Light,Helvetica" font-size="37.2" fill="#FEFFFF" transform="matrix(1.00, 0.00, -0.00, -1.00, 388.5, 522.6)">o</text><text xml:space="preserve" font-family="Helvetica-Light,Helvetica" font-size="37.2" fill="#FEFFFF" transform="matrix(1.00, 0.00, -0.00, -1.00, 409.2, 522.6)">r</text><text xml:space="preserve" font-family="Helvetica-Light,Helvetica" font-size="37.2" fill="#FEFFFF" transform="matrix(1.00, 0.00, -0.00, -1.00, 421.6, 522.6)">k</text><text xml:space="preserve" font-family="Helvetica-Light,Helvetica" font-size="37.2" fill="#FEFFFF" transform="matrix(1.00, 0.00, -0.00, -1.00, 440.2, 522.6)"> </text><text xml:space="preserve" font-family="Helvetica-Light,Helvetica" font-size="27.9" fill="#FEFFFF" transform="matrix(1.00, 0.00, -0.00, -1.00, 79.0, 439.3)">•</text><text xml:space="preserve" font-family="Helvetica-Light,Helvetica" font-size="37.2" fill="#FEFFFF" transform="matrix(1.00, 0.00, -0.00, -1.00, 113.3, 435.4)">С</text><text xml:space="preserve" font-family="Helvetica-Light,Helvetica" font-size="37.2" fill="#FEFFFF" transform="matrix(1.00, 0.00, -0.00, -1.00, 139.5, 435.4)">п</text><text xml:space="preserve" font-family="Helvetica-Light,Helvetica" font-size="37.2" fill="#FEFFFF" transform="matrix(1.00, 0.00, -0.00, -1.00, 159.3, 435.4)">е</text><text xml:space="preserve" font-family="Helvetica-Light,Helvetica" font-size="37.2" fill="#FEFFFF" transform="matrix(1.00, 0.00, -0.00, -1.00, 178.6, 435.4)">ц</text><text xml:space="preserve" font-family="Helvetica-Light,Helvetica" font-size="37.2" fill="#FEFFFF" transform="matrix(1.00, 0.00, -0.00, -1.00, 199.1, 435.4)">и</text><text xml:space="preserve" font-family="Helvetica-Light,Helvetica" font-size="37.2" fill="#FEFFFF" transform="matrix(1.00, 0.00, -0.00, -1.00, 219.4, 435.4)">а</text><text xml:space="preserve" font-family="Helvetica-Light,Helvetica" font-size="37.2" fill="#FEFFFF" transform="matrix(1.00, 0.00, -0.00, -1.00, 238.7, 435.4)">л</text><text xml:space="preserve" font-family="Helvetica-Light,Helvetica" font-size="37.2" fill="#FEFFFF" transform="matrix(1.00, 0.00, -0.00, -1.00, 259.8, 435.4)">и</text><text xml:space="preserve" font-family="Helvetica-Light,Helvetica" font-size="37.2" fill="#FEFFFF" transform="matrix(1.00, 0.00, -0.00, -1.00, 280.0, 435.4)">з</text><text xml:space="preserve" font-family="Helvetica-Light,Helvetica" font-size="37.2" fill="#FEFFFF" transform="matrix(1.00, 0.00, -0.00, -1.00, 298.1, 435.4)">и</text><text xml:space="preserve" font-family="Helvetica-Light,Helvetica" font-size="37.2" fill="#FEFFFF" transform="matrix(1.00, 0.00, -0.00, -1.00, 318.3, 435.4)">р</text><text xml:space="preserve" font-family="Helvetica-Light,Helvetica" font-size="37.2" fill="#FEFFFF" transform="matrix(1.00, 0.00, -0.00, -1.00, 339.7, 435.4)">о</text><text xml:space="preserve" font-family="Helvetica-Light,Helvetica" font-size="37.2" fill="#FEFFFF" transform="matrix(1.00, 0.00, -0.00, -1.00, 360.4, 435.4)">в</text><text xml:space="preserve" font-family="Helvetica-Light,Helvetica" font-size="37.2" fill="#FEFFFF" transform="matrix(1.00, 0.00, -0.00, -1.00, 379.7, 435.4)">а</text><text xml:space="preserve" font-family="Helvetica-Light,Helvetica" font-size="37.2" fill="#FEFFFF" transform="matrix(1.00, 0.00, -0.00, -1.00, 399.0, 435.4)">н</text><text xml:space="preserve" font-family="Helvetica-Light,Helvetica" font-size="37.2" fill="#FEFFFF" transform="matrix(1.00, 0.00, -0.00, -1.00, 419.0, 435.4)"> </text><text xml:space="preserve" font-family="Helvetica-Light,Helvetica" font-size="37.2" fill="#FEFFFF" transform="matrix(1.00, 0.00, -0.00, -1.00, 429.4, 435.4)">д</text><text xml:space="preserve" font-family="Helvetica-Light,Helvetica" font-size="37.2" fill="#FEFFFF" transform="matrix(1.00, 0.00, -0.00, -1.00, 450.6, 435.4)">л</text><text xml:space="preserve" font-family="Helvetica-Light,Helvetica" font-size="37.2" fill="#FEFFFF" transform="matrix(1.00, 0.00, -0.00, -1.00, 471.6, 435.4)">я</text><text xml:space="preserve" font-family="Helvetica-Light,Helvetica" font-size="37.2" fill="#FEFFFF" transform="matrix(1.00, 0.00, -0.00, -1.00, 490.5, 435.4)"> </text><text xml:space="preserve" font-family="Helvetica-Light,Helvetica" font-size="37.2" fill="#FEFFFF" transform="matrix(1.00, 0.00, -0.00, -1.00, 500.8, 435.4)">п</text><text xml:space="preserve" font-family="Helvetica-Light,Helvetica" font-size="37.2" fill="#FEFFFF" transform="matrix(1.00, 0.00, -0.00, -1.00, 520.6, 435.4)">о</text><text xml:space="preserve" font-family="Helvetica-Light,Helvetica" font-size="37.2" fill="#FEFFFF" transform="matrix(1.00, 0.00, -0.00, -1.00, 541.3, 435.4)">с</text><text xml:space="preserve" font-family="Helvetica-Light,Helvetica" font-size="37.2" fill="#FEFFFF" transform="matrix(1.00, 0.00, -0.00, -1.00, 560.6, 435.4)">т</text><text xml:space="preserve" font-family="Helvetica-Light,Helvetica" font-size="37.2" fill="#FEFFFF" transform="matrix(1.00, 0.00, -0.00, -1.00, 577.1, 435.4)">р</text><text xml:space="preserve" font-family="Helvetica-Light,Helvetica" font-size="37.2" fill="#FEFFFF" transform="matrix(1.00, 0.00, -0.00, -1.00, 598.5, 435.4)">о</text><text xml:space="preserve" font-family="Helvetica-Light,Helvetica" font-size="37.2" fill="#FEFFFF" transform="matrix(1.00, 0.00, -0.00, -1.00, 619.2, 435.4)">е</text><text xml:space="preserve" font-family="Helvetica-Light,Helvetica" font-size="37.2" fill="#FEFFFF" transform="matrix(1.00, 0.00, -0.00, -1.00, 638.5, 435.4)">н</text><text xml:space="preserve" font-family="Helvetica-Light,Helvetica" font-size="37.2" fill="#FEFFFF" transform="matrix(1.00, 0.00, -0.00, -1.00, 658.5, 435.4)">и</text><text xml:space="preserve" font-family="Helvetica-Light,Helvetica" font-size="37.2" fill="#FEFFFF" transform="matrix(1.00, 0.00, -0.00, -1.00, 678.8, 435.4)">я</text><text xml:space="preserve" font-family="Helvetica-Light,Helvetica" font-size="37.2" fill="#FEFFFF" transform="matrix(1.00, 0.00, -0.00, -1.00, 697.6, 435.4)"> </text><text xml:space="preserve" font-family="Helvetica-Light,Helvetica" font-size="37.2" fill="#FEFFFF" transform="matrix(1.00, 0.00, -0.00, -1.00, 707.9, 435.4)">A</text><text xml:space="preserve" font-family="Helvetica-Light,Helvetica" font-size="37.2" fill="#FEFFFF" transform="matrix(1.00, 0.00, -0.00, -1.00, 732.8, 435.4)">P</text><text xml:space="preserve" font-family="Helvetica-Light,Helvetica" font-size="37.2" fill="#FEFFFF" transform="matrix(1.00, 0.00, -0.00, -1.00, 755.5, 435.4)">I</text><text xml:space="preserve" font-family="Helvetica-Light,Helvetica" font-size="37.2" fill="#FEFFFF" transform="matrix(1.00, 0.00, -0.00, -1.00, 765.9, 435.4)"> </text><text xml:space="preserve" font-family="Helvetica-Light,Helvetica" font-size="27.9" fill="#FEFFFF" transform="matrix(1.00, 0.00, -0.00, -1.00, 79.0, 352.1)">•</text><text xml:space="preserve" font-family="Helvetica-Light,Helvetica" font-size="37.2" fill="#FEFFFF" transform="matrix(1.00, 0.00, -0.00, -1.00, 113.3, 348.2)">С</text><text xml:space="preserve" font-family="Helvetica-Light,Helvetica" font-size="37.2" fill="#FEFFFF" transform="matrix(1.00, 0.00, -0.00, -1.00, 139.5, 348.2)">п</text><text xml:space="preserve" font-family="Helvetica-Light,Helvetica" font-size="37.2" fill="#FEFFFF" transform="matrix(1.00, 0.00, -0.00, -1.00, 159.3, 348.2)">е</text><text xml:space="preserve" font-family="Helvetica-Light,Helvetica" font-size="37.2" fill="#FEFFFF" transform="matrix(1.00, 0.00, -0.00, -1.00, 178.6, 348.2)">ц</text><text xml:space="preserve" font-family="Helvetica-Light,Helvetica" font-size="37.2" fill="#FEFFFF" transform="matrix(1.00, 0.00, -0.00, -1.00, 199.1, 348.2)">и</text><text xml:space="preserve" font-family="Helvetica-Light,Helvetica" font-size="37.2" fill="#FEFFFF" transform="matrix(1.00, 0.00, -0.00, -1.00, 219.4, 348.2)">а</text><text xml:space="preserve" font-family="Helvetica-Light,Helvetica" font-size="37.2" fill="#FEFFFF" transform="matrix(1.00, 0.00, -0.00, -1.00, 238.7, 348.2)">л</text><text xml:space="preserve" font-family="Helvetica-Light,Helvetica" font-size="37.2" fill="#FEFFFF" transform="matrix(1.00, 0.00, -0.00, -1.00, 259.8, 348.2)">и</text><text xml:space="preserve" font-family="Helvetica-Light,Helvetica" font-size="37.2" fill="#FEFFFF" transform="matrix(1.00, 0.00, -0.00, -1.00, 280.0, 348.2)">з</text><text xml:space="preserve" font-family="Helvetica-Light,Helvetica" font-size="37.2" fill="#FEFFFF" transform="matrix(1.00, 0.00, -0.00, -1.00, 298.1, 348.2)">и</text><text xml:space="preserve" font-family="Helvetica-Light,Helvetica" font-size="37.2" fill="#FEFFFF" transform="matrix(1.00, 0.00, -0.00, -1.00, 318.3, 348.2)">р</text><text xml:space="preserve" font-family="Helvetica-Light,Helvetica" font-size="37.2" fill="#FEFFFF" transform="matrix(1.00, 0.00, -0.00, -1.00, 339.7, 348.2)">о</text><text xml:space="preserve" font-family="Helvetica-Light,Helvetica" font-size="37.2" fill="#FEFFFF" transform="matrix(1.00, 0.00, -0.00, -1.00, 360.4, 348.2)">в</text><text xml:space="preserve" font-family="Helvetica-Light,Helvetica" font-size="37.2" fill="#FEFFFF" transform="matrix(1.00, 0.00, -0.00, -1.00, 379.7, 348.2)">а</text><text xml:space="preserve" font-family="Helvetica-Light,Helvetica" font-size="37.2" fill="#FEFFFF" transform="matrix(1.00, 0.00, -0.00, -1.00, 399.0, 348.2)">н</text><text xml:space="preserve" font-family="Helvetica-Light,Helvetica" font-size="37.2" fill="#FEFFFF" transform="matrix(1.00, 0.00, -0.00, -1.00, 419.0, 348.2)"> </text><text xml:space="preserve" font-family="Helvetica-Light,Helvetica" font-size="37.2" fill="#FEFFFF" transform="matrix(1.00, 0.00, -0.00, -1.00, 429.4, 348.2)">д</text><text xml:space="preserve" font-family="Helvetica-Light,Helvetica" font-size="37.2" fill="#FEFFFF" transform="matrix(1.00, 0.00, -0.00, -1.00, 450.6, 348.2)">л</text><text xml:space="preserve" font-family="Helvetica-Light,Helvetica" font-size="37.2" fill="#FEFFFF" transform="matrix(1.00, 0.00, -0.00, -1.00, 471.6, 348.2)">я</text><text xml:space="preserve" font-family="Helvetica-Light,Helvetica" font-size="37.2" fill="#FEFFFF" transform="matrix(1.00, 0.00, -0.00, -1.00, 490.5, 348.2)"> </text><text xml:space="preserve" font-family="Helvetica-Light,Helvetica" font-size="37.2" fill="#FEFFFF" transform="matrix(1.00, 0.00, -0.00, -1.00, 500.8, 348.2)">р</text><text xml:space="preserve" font-family="Helvetica-Light,Helvetica" font-size="37.2" fill="#FEFFFF" transform="matrix(1.00, 0.00, -0.00, -1.00, 522.2, 348.2)">а</text><text xml:space="preserve" font-family="Helvetica-Light,Helvetica" font-size="37.2" fill="#FEFFFF" transform="matrix(1.00, 0.00, -0.00, -1.00, 541.5, 348.2)">б</text><text xml:space="preserve" font-family="Helvetica-Light,Helvetica" font-size="37.2" fill="#FEFFFF" transform="matrix(1.00, 0.00, -0.00, -1.00, 562.2, 348.2)">о</text><text xml:space="preserve" font-family="Helvetica-Light,Helvetica" font-size="37.2" fill="#FEFFFF" transform="matrix(1.00, 0.00, -0.00, -1.00, 582.9, 348.2)">т</text><text xml:space="preserve" font-family="Helvetica-Light,Helvetica" font-size="37.2" fill="#FEFFFF" transform="matrix(1.00, 0.00, -0.00, -1.00, 599.4, 348.2)">ы</text><text xml:space="preserve" font-family="Helvetica-Light,Helvetica" font-size="37.2" fill="#FEFFFF" transform="matrix(1.00, 0.00, -0.00, -1.00, 624.4, 348.2)"> </text><text xml:space="preserve" font-family="Helvetica-Light,Helvetica" font-size="37.2" fill="#FEFFFF" transform="matrix(1.00, 0.00, -0.00, -1.00, 634.8, 348.2)">с</text><text xml:space="preserve" font-family="Helvetica-Light,Helvetica" font-size="37.2" fill="#FEFFFF" transform="matrix(1.00, 0.00, -0.00, -1.00, 654.1, 348.2)"> </text><text xml:space="preserve" font-family="Helvetica-Light,Helvetica" font-size="37.2" fill="#FEFFFF" transform="matrix(1.00, 0.00, -0.00, -1.00, 664.5, 348.2)">м</text><text xml:space="preserve" font-family="Helvetica-Light,Helvetica" font-size="37.2" fill="#FEFFFF" transform="matrix(1.00, 0.00, -0.00, -1.00, 689.3, 348.2)">н</text><text xml:space="preserve" font-family="Helvetica-Light,Helvetica" font-size="37.2" fill="#FEFFFF" transform="matrix(1.00, 0.00, -0.00, -1.00, 709.3, 348.2)">о</text><text xml:space="preserve" font-family="Helvetica-Light,Helvetica" font-size="37.2" fill="#FEFFFF" transform="matrix(1.00, 0.00, -0.00, -1.00, 730.0, 348.2)">ж</text><text xml:space="preserve" font-family="Helvetica-Light,Helvetica" font-size="37.2" fill="#FEFFFF" transform="matrix(1.00, 0.00, -0.00, -1.00, 757.5, 348.2)">е</text><text xml:space="preserve" font-family="Helvetica-Light,Helvetica" font-size="37.2" fill="#FEFFFF" transform="matrix(1.00, 0.00, -0.00, -1.00, 776.8, 348.2)">с</text><text xml:space="preserve" font-family="Helvetica-Light,Helvetica" font-size="37.2" fill="#FEFFFF" transform="matrix(1.00, 0.00, -0.00, -1.00, 796.1, 348.2)">т</text><text xml:space="preserve" font-family="Helvetica-Light,Helvetica" font-size="37.2" fill="#FEFFFF" transform="matrix(1.00, 0.00, -0.00, -1.00, 812.6, 348.2)">в</text><text xml:space="preserve" font-family="Helvetica-Light,Helvetica" font-size="37.2" fill="#FEFFFF" transform="matrix(1.00, 0.00, -0.00, -1.00, 831.9, 348.2)">о</text><text xml:space="preserve" font-family="Helvetica-Light,Helvetica" font-size="37.2" fill="#FEFFFF" transform="matrix(1.00, 0.00, -0.00, -1.00, 852.6, 348.2)">м</text><text xml:space="preserve" font-family="Helvetica-Light,Helvetica" font-size="37.2" fill="#FEFFFF" transform="matrix(1.00, 0.00, -0.00, -1.00, 877.5, 348.2)"> </text><text xml:space="preserve" font-family="Helvetica-Light,Helvetica" font-size="37.2" fill="#FEFFFF" transform="matrix(1.00, 0.00, -0.00, -1.00, 113.3, 302.2)">и</text><text xml:space="preserve" font-family="Helvetica-Light,Helvetica" font-size="37.2" fill="#FEFFFF" transform="matrix(1.00, 0.00, -0.00, -1.00, 133.6, 302.2)">с</text><text xml:space="preserve" font-family="Helvetica-Light,Helvetica" font-size="37.2" fill="#FEFFFF" transform="matrix(1.00, 0.00, -0.00, -1.00, 152.9, 302.2)">т</text><text xml:space="preserve" font-family="Helvetica-Light,Helvetica" font-size="37.2" fill="#FEFFFF" transform="matrix(1.00, 0.00, -0.00, -1.00, 169.4, 302.2)">о</text><text xml:space="preserve" font-family="Helvetica-Light,Helvetica" font-size="37.2" fill="#FEFFFF" transform="matrix(1.00, 0.00, -0.00, -1.00, 190.1, 302.2)">ч</text><text xml:space="preserve" font-family="Helvetica-Light,Helvetica" font-size="37.2" fill="#FEFFFF" transform="matrix(1.00, 0.00, -0.00, -1.00, 208.6, 302.2)">н</text><text xml:space="preserve" font-family="Helvetica-Light,Helvetica" font-size="37.2" fill="#FEFFFF" transform="matrix(1.00, 0.00, -0.00, -1.00, 228.6, 302.2)">и</text><text xml:space="preserve" font-family="Helvetica-Light,Helvetica" font-size="37.2" fill="#FEFFFF" transform="matrix(1.00, 0.00, -0.00, -1.00, 248.9, 302.2)">к</text><text xml:space="preserve" font-family="Helvetica-Light,Helvetica" font-size="37.2" fill="#FEFFFF" transform="matrix(1.00, 0.00, -0.00, -1.00, 267.4, 302.2)">о</text><text xml:space="preserve" font-family="Helvetica-Light,Helvetica" font-size="37.2" fill="#FEFFFF" transform="matrix(1.00, 0.00, -0.00, -1.00, 288.1, 302.2)">в</text><text xml:space="preserve" font-family="Helvetica-Light,Helvetica" font-size="37.2" fill="#FEFFFF" transform="matrix(1.00, 0.00, -0.00, -1.00, 307.4, 302.2)"> </text><text xml:space="preserve" font-family="Helvetica-Light,Helvetica" font-size="37.2" fill="#FEFFFF" transform="matrix(1.00, 0.00, -0.00, -1.00, 317.7, 302.2)">д</text><text xml:space="preserve" font-family="Helvetica-Light,Helvetica" font-size="37.2" fill="#FEFFFF" transform="matrix(1.00, 0.00, -0.00, -1.00, 339.0, 302.2)">а</text><text xml:space="preserve" font-family="Helvetica-Light,Helvetica" font-size="37.2" fill="#FEFFFF" transform="matrix(1.00, 0.00, -0.00, -1.00, 358.3, 302.2)">н</text><text xml:space="preserve" font-family="Helvetica-Light,Helvetica" font-size="37.2" fill="#FEFFFF" transform="matrix(1.00, 0.00, -0.00, -1.00, 378.3, 302.2)">н</text><text xml:space="preserve" font-family="Helvetica-Light,Helvetica" font-size="37.2" fill="#FEFFFF" transform="matrix(1.00, 0.00, -0.00, -1.00, 398.3, 302.2)">ы</text><text xml:space="preserve" font-family="Helvetica-Light,Helvetica" font-size="37.2" fill="#FEFFFF" transform="matrix(1.00, 0.00, -0.00, -1.00, 423.3, 302.2)">х</text><text xml:space="preserve" font-family="Helvetica-Light,Helvetica" font-size="37.2" fill="#FEFFFF" transform="matrix(1.00, 0.00, -0.00, -1.00, 441.2, 302.2)"> </text><text xml:space="preserve" font-family="Helvetica-Light,Helvetica" font-size="37.2" fill="#FEFFFF" transform="matrix(1.00, 0.00, -0.00, -1.00, 451.6, 302.2)">(</text><text xml:space="preserve" font-family="Helvetica-Light,Helvetica" font-size="37.2" fill="#FEFFFF" transform="matrix(1.00, 0.00, -0.00, -1.00, 464.0, 302.2)">O</text><text xml:space="preserve" font-family="Helvetica-Light,Helvetica" font-size="37.2" fill="#FEFFFF" transform="matrix(1.00, 0.00, -0.00, -1.00, 492.9, 302.2)">R</text><text xml:space="preserve" font-family="Helvetica-Light,Helvetica" font-size="37.2" fill="#FEFFFF" transform="matrix(1.00, 0.00, -0.00, -1.00, 517.8, 302.2)">M</text><text xml:space="preserve" font-family="Helvetica-Light,Helvetica" font-size="37.2" fill="#FEFFFF" transform="matrix(1.00, 0.00, -0.00, -1.00, 548.8, 302.2)"> </text><text xml:space="preserve" font-family="Helvetica-Light,Helvetica" font-size="37.2" fill="#FEFFFF" transform="matrix(1.00, 0.00, -0.00, -1.00, 559.1, 302.2)">+</text><text xml:space="preserve" font-family="Helvetica-Light,Helvetica" font-size="37.2" fill="#FEFFFF" transform="matrix(1.00, 0.00, -0.00, -1.00, 583.7, 302.2)"> </text><text xml:space="preserve" font-family="Helvetica-Light,Helvetica" font-size="37.2" fill="#FEFFFF" transform="matrix(1.00, 0.00, -0.00, -1.00, 594.1, 302.2)">D</text><text xml:space="preserve" font-family="Helvetica-Light,Helvetica" font-size="37.2" fill="#FEFFFF" transform="matrix(1.00, 0.00, -0.00, -1.00, 621.0, 302.2)">a</text><text xml:space="preserve" font-family="Helvetica-Light,Helvetica" font-size="37.2" fill="#FEFFFF" transform="matrix(1.00, 0.00, -0.00, -1.00, 641.7, 302.2)">t</text><text xml:space="preserve" font-family="Helvetica-Light,Helvetica" font-size="37.2" fill="#FEFFFF" transform="matrix(1.00, 0.00, -0.00, -1.00, 652.0, 302.2)">a</text><text xml:space="preserve" font-family="Helvetica-Light,Helvetica" font-size="37.2" fill="#FEFFFF" transform="matrix(1.00, 0.00, -0.00, -1.00, 672.7, 302.2)">S</text><text xml:space="preserve" font-family="Helvetica-Light,Helvetica" font-size="37.2" fill="#FEFFFF" transform="matrix(1.00, 0.00, -0.00, -1.00, 695.5, 302.2)">o</text><text xml:space="preserve" font-family="Helvetica-Light,Helvetica" font-size="37.2" fill="#FEFFFF" transform="matrix(1.00, 0.00, -0.00, -1.00, 716.2, 302.2)">u</text><text xml:space="preserve" font-family="Helvetica-Light,Helvetica" font-size="37.2" fill="#FEFFFF" transform="matrix(1.00, 0.00, -0.00, -1.00, 736.9, 302.2)">r</text><text xml:space="preserve" font-family="Helvetica-Light,Helvetica" font-size="37.2" fill="#FEFFFF" transform="matrix(1.00, 0.00, -0.00, -1.00, 748.6, 302.2)">c</text><text xml:space="preserve" font-family="Helvetica-Light,Helvetica" font-size="37.2" fill="#FEFFFF" transform="matrix(1.00, 0.00, -0.00, -1.00, 769.3, 302.2)">e</text><text xml:space="preserve" font-family="Helvetica-Light,Helvetica" font-size="37.2" fill="#FEFFFF" transform="matrix(1.00, 0.00, -0.00, -1.00, 790.0, 302.2)">s</text><text xml:space="preserve" font-family="Helvetica-Light,Helvetica" font-size="37.2" fill="#FEFFFF" transform="matrix(1.00, 0.00, -0.00, -1.00, 808.6, 302.2)">)</text><text xml:space="preserve" font-family="Helvetica-Light,Helvetica" font-size="37.2" fill="#FEFFFF" transform="matrix(1.00, 0.00, -0.00, -1.00, 821.0, 302.2)"> </text><text xml:space="preserve" font-family="Helvetica-Light,Helvetica" font-size="37.2" fill="#FEFFFF" transform="matrix(1.00, 0.00, -0.00, -1.00, 831.4, 302.2)">D</text><text xml:space="preserve" font-family="Helvetica-Light,Helvetica" font-size="37.2" fill="#FEFFFF" transform="matrix(1.00, 0.00, -0.00, -1.00, 858.3, 302.2)">a</text><text xml:space="preserve" font-family="Helvetica-Light,Helvetica" font-size="37.2" fill="#FEFFFF" transform="matrix(1.00, 0.00, -0.00, -1.00, 879.0, 302.2)">t</text><text xml:space="preserve" font-family="Helvetica-Light,Helvetica" font-size="37.2" fill="#FEFFFF" transform="matrix(1.00, 0.00, -0.00, -1.00, 889.3, 302.2)">a</text><text xml:space="preserve" font-family="Helvetica-Light,Helvetica" font-size="37.2" fill="#FEFFFF" transform="matrix(1.00, 0.00, -0.00, -1.00, 910.0, 302.2)"> </text><text xml:space="preserve" font-family="Helvetica-Light,Helvetica" font-size="37.2" fill="#FEFFFF" transform="matrix(1.00, 0.00, -0.00, -1.00, 113.3, 256.2)">J</text><text xml:space="preserve" font-family="Helvetica-Light,Helvetica" font-size="37.2" fill="#FEFFFF" transform="matrix(1.00, 0.00, -0.00, -1.00, 131.9, 256.2)">u</text><text xml:space="preserve" font-family="Helvetica-Light,Helvetica" font-size="37.2" fill="#FEFFFF" transform="matrix(1.00, 0.00, -0.00, -1.00, 152.6, 256.2)">g</text><text xml:space="preserve" font-family="Helvetica-Light,Helvetica" font-size="37.2" fill="#FEFFFF" transform="matrix(1.00, 0.00, -0.00, -1.00, 175.4, 256.2)">g</text><text xml:space="preserve" font-family="Helvetica-Light,Helvetica" font-size="37.2" fill="#FEFFFF" transform="matrix(1.00, 0.00, -0.00, -1.00, 198.1, 256.2)">l</text><text xml:space="preserve" font-family="Helvetica-Light,Helvetica" font-size="37.2" fill="#FEFFFF" transform="matrix(1.00, 0.00, -0.00, -1.00, 206.4, 256.2)">e</text><text xml:space="preserve" font-family="Helvetica-Light,Helvetica" font-size="37.2" fill="#FEFFFF" transform="matrix(1.00, 0.00, -0.00, -1.00, 227.1, 256.2)">r</text><text xml:space="preserve" font-family="Helvetica-Light,Helvetica" font-size="37.2" fill="#FEFFFF" transform="matrix(1.00, 0.00, -0.00, -1.00, 239.5, 256.2)"> </text><text xml:space="preserve" font-family="Helvetica-Light,Helvetica" font-size="27.9" fill="#FEFFFF" transform="matrix(1.00, 0.00, -0.00, -1.00, 79.0, 172.9)">•</text><text xml:space="preserve" font-family="Helvetica-Light,Helvetica" font-size="37.2" fill="#FEFFFF" transform="matrix(1.00, 0.00, -0.00, -1.00, 113.3, 169.1)">П</text><text xml:space="preserve" font-family="Helvetica-Light,Helvetica" font-size="37.2" fill="#FEFFFF" transform="matrix(1.00, 0.00, -0.00, -1.00, 139.1, 169.1)">о</text><text xml:space="preserve" font-family="Helvetica-Light,Helvetica" font-size="37.2" fill="#FEFFFF" transform="matrix(1.00, 0.00, -0.00, -1.00, 159.9, 169.1)">ч</text><text xml:space="preserve" font-family="Helvetica-Light,Helvetica" font-size="37.2" fill="#FEFFFF" transform="matrix(1.00, 0.00, -0.00, -1.00, 178.4, 169.1)">т</text><text xml:space="preserve" font-family="Helvetica-Light,Helvetica" font-size="37.2" fill="#FEFFFF" transform="matrix(1.00, 0.00, -0.00, -1.00, 194.9, 169.1)">и</text><text xml:space="preserve" font-family="Helvetica-Light,Helvetica" font-size="37.2" fill="#FEFFFF" transform="matrix(1.00, 0.00, -0.00, -1.00, 215.2, 169.1)"> </text><text xml:space="preserve" font-family="Helvetica-Light,Helvetica" font-size="37.2" fill="#FEFFFF" transform="matrix(1.00, 0.00, -0.00, -1.00, 225.5, 169.1)">“</text><text xml:space="preserve" font-family="Helvetica-Light,Helvetica" font-size="37.2" fill="#FEFFFF" transform="matrix(1.00, 0.00, -0.00, -1.00, 240.0, 169.1)">б</text><text xml:space="preserve" font-family="Helvetica-Light,Helvetica" font-size="37.2" fill="#FEFFFF" transform="matrix(1.00, 0.00, -0.00, -1.00, 260.7, 169.1)">е</text><text xml:space="preserve" font-family="Helvetica-Light,Helvetica" font-size="37.2" fill="#FEFFFF" transform="matrix(1.00, 0.00, -0.00, -1.00, 280.0, 169.1)">з</text><text xml:space="preserve" font-family="Helvetica-Light,Helvetica" font-size="37.2" fill="#FEFFFF" transform="matrix(1.00, 0.00, -0.00, -1.00, 298.1, 169.1)"> </text><text xml:space="preserve" font-family="Helvetica-Light,Helvetica" font-size="37.2" fill="#FEFFFF" transform="matrix(1.00, 0.00, -0.00, -1.00, 308.4, 169.1)">к</text><text xml:space="preserve" font-family="Helvetica-Light,Helvetica" font-size="37.2" fill="#FEFFFF" transform="matrix(1.00, 0.00, -0.00, -1.00, 327.0, 169.1)">о</text><text xml:space="preserve" font-family="Helvetica-Light,Helvetica" font-size="37.2" fill="#FEFFFF" transform="matrix(1.00, 0.00, -0.00, -1.00, 347.7, 169.1)">д</text><text xml:space="preserve" font-family="Helvetica-Light,Helvetica" font-size="37.2" fill="#FEFFFF" transform="matrix(1.00, 0.00, -0.00, -1.00, 368.9, 169.1)">а</text><text xml:space="preserve" font-family="Helvetica-Light,Helvetica" font-size="37.2" fill="#FEFFFF" transform="matrix(1.00, 0.00, -0.00, -1.00, 388.2, 169.1)">”</text><text xml:space="preserve" font-family="Helvetica-Light,Helvetica" font-size="37.2" fill="#FEFFFF" transform="matrix(1.00, 0.00, -0.00, -1.00, 402.7, 169.1)"> </text><text xml:space="preserve" font-family="Helvetica-Light,Helvetica" font-size="37.2" fill="#FEFFFF" transform="matrix(1.00, 0.00, -0.00, -1.00, 413.1, 169.1)">(</text><text xml:space="preserve" font-family="Helvetica-Light,Helvetica" font-size="37.2" fill="#FEFFFF" transform="matrix(1.00, 0.00, -0.00, -1.00, 425.5, 169.1)">c</text><text xml:space="preserve" font-family="Helvetica-Light,Helvetica" font-size="37.2" fill="#FEFFFF" transform="matrix(1.00, 0.00, -0.00, -1.00, 446.2, 169.1)">o</text><text xml:space="preserve" font-family="Helvetica-Light,Helvetica" font-size="37.2" fill="#FEFFFF" transform="matrix(1.00, 0.00, -0.00, -1.00, 466.9, 169.1)">n</text><text xml:space="preserve" font-family="Helvetica-Light,Helvetica" font-size="37.2" fill="#FEFFFF" transform="matrix(1.00, 0.00, -0.00, -1.00, 487.6, 169.1)">v</text><text xml:space="preserve" font-family="Helvetica-Light,Helvetica" font-size="37.2" fill="#FEFFFF" transform="matrix(1.00, 0.00, -0.00, -1.00, 506.2, 169.1)">e</text><text xml:space="preserve" font-family="Helvetica-Light,Helvetica" font-size="37.2" fill="#FEFFFF" transform="matrix(1.00, 0.00, -0.00, -1.00, 526.9, 169.1)">n</text><text xml:space="preserve" font-family="Helvetica-Light,Helvetica" font-size="37.2" fill="#FEFFFF" transform="matrix(1.00, 0.00, -0.00, -1.00, 547.6, 169.1)">t</text><text xml:space="preserve" font-family="Helvetica-Light,Helvetica" font-size="37.2" fill="#FEFFFF" transform="matrix(1.00, 0.00, -0.00, -1.00, 558.0, 169.1)">i</text><text xml:space="preserve" font-family="Helvetica-Light,Helvetica" font-size="37.2" fill="#FEFFFF" transform="matrix(1.00, 0.00, -0.00, -1.00, 566.3, 169.1)">o</text><text xml:space="preserve" font-family="Helvetica-Light,Helvetica" font-size="37.2" fill="#FEFFFF" transform="matrix(1.00, 0.00, -0.00, -1.00, 587.0, 169.1)">n</text><text xml:space="preserve" font-family="Helvetica-Light,Helvetica" font-size="37.2" fill="#FEFFFF" transform="matrix(1.00, 0.00, -0.00, -1.00, 607.7, 169.1)"> </text><text xml:space="preserve" font-family="Helvetica-Light,Helvetica" font-size="37.2" fill="#FEFFFF" transform="matrix(1.00, 0.00, -0.00, -1.00, 618.0, 169.1)">o</text><text xml:space="preserve" font-family="Helvetica-Light,Helvetica" font-size="37.2" fill="#FEFFFF" transform="matrix(1.00, 0.00, -0.00, -1.00, 638.7, 169.1)">v</text><text xml:space="preserve" font-family="Helvetica-Light,Helvetica" font-size="37.2" fill="#FEFFFF" transform="matrix(1.00, 0.00, -0.00, -1.00, 657.3, 169.1)">e</text><text xml:space="preserve" font-family="Helvetica-Light,Helvetica" font-size="37.2" fill="#FEFFFF" transform="matrix(1.00, 0.00, -0.00, -1.00, 678.0, 169.1)">r</text><text xml:space="preserve" font-family="Helvetica-Light,Helvetica" font-size="37.2" fill="#FEFFFF" transform="matrix(1.00, 0.00, -0.00, -1.00, 690.4, 169.1)"> </text><text xml:space="preserve" font-family="Helvetica-Light,Helvetica" font-size="37.2" fill="#FEFFFF" transform="matrix(1.00, 0.00, -0.00, -1.00, 700.8, 169.1)">c</text><text xml:space="preserve" font-family="Helvetica-Light,Helvetica" font-size="37.2" fill="#FEFFFF" transform="matrix(1.00, 0.00, -0.00, -1.00, 721.5, 169.1)">o</text><text xml:space="preserve" font-family="Helvetica-Light,Helvetica" font-size="37.2" fill="#FEFFFF" transform="matrix(1.00, 0.00, -0.00, -1.00, 742.2, 169.1)">n</text><text xml:space="preserve" font-family="Helvetica-Light,Helvetica" font-size="37.2" fill="#FEFFFF" transform="matrix(1.00, 0.00, -0.00, -1.00, 762.9, 169.1)">ﬁ</text><text xml:space="preserve" font-family="Helvetica-Light,Helvetica" font-size="37.2" fill="#FEFFFF" transform="matrix(1.00, 0.00, -0.00, -1.00, 781.5, 169.1)">g</text><text xml:space="preserve" font-family="Helvetica-Light,Helvetica" font-size="37.2" fill="#FEFFFF" transform="matrix(1.00, 0.00, -0.00, -1.00, 804.3, 169.1)">u</text><text xml:space="preserve" font-family="Helvetica-Light,Helvetica" font-size="37.2" fill="#FEFFFF" transform="matrix(1.00, 0.00, -0.00, -1.00, 825.0, 169.1)">r</text><text xml:space="preserve" font-family="Helvetica-Light,Helvetica" font-size="37.2" fill="#FEFFFF" transform="matrix(1.00, 0.00, -0.00, -1.00, 837.4, 169.1)">a</text><text xml:space="preserve" font-family="Helvetica-Light,Helvetica" font-size="37.2" fill="#FEFFFF" transform="matrix(1.00, 0.00, -0.00, -1.00, 858.1, 169.1)">t</text><text xml:space="preserve" font-family="Helvetica-Light,Helvetica" font-size="37.2" fill="#FEFFFF" transform="matrix(1.00, 0.00, -0.00, -1.00, 868.5, 169.1)">i</text><text xml:space="preserve" font-family="Helvetica-Light,Helvetica" font-size="37.2" fill="#FEFFFF" transform="matrix(1.00, 0.00, -0.00, -1.00, 876.7, 169.1)">o</text><text xml:space="preserve" font-family="Helvetica-Light,Helvetica" font-size="37.2" fill="#FEFFFF" transform="matrix(1.00, 0.00, -0.00, -1.00, 897.4, 169.1)">n</text><text xml:space="preserve" font-family="Helvetica-Light,Helvetica" font-size="37.2" fill="#FEFFFF" transform="matrix(1.00, 0.00, -0.00, -1.00, 918.1, 169.1)">)</text><text xml:space="preserve" font-family="Helvetica-Light,Helvetica" font-size="37.2" fill="#FEFFFF" transform="matrix(1.00, 0.00, -0.00, -1.00, 930.5, 169.1)"> </text><text xml:space="preserve" font-family="Helvetica-Light,Helvetica" font-size="27.9" fill="#FEFFFF" transform="matrix(1.00, 0.00, -0.00, -1.00, 79.0, 85.8)">•</text><text xml:space="preserve" font-family="Helvetica-Light,Helvetica" font-size="37.2" fill="#FEFFFF" transform="matrix(1.00, 0.00, -0.00, -1.00, 113.3, 81.9)">C</text><text xml:space="preserve" font-family="Helvetica-Light,Helvetica" font-size="37.2" fill="#FEFFFF" transform="matrix(1.00, 0.00, -0.00, -1.00, 140.2, 81.9)">l</text><text xml:space="preserve" font-family="Helvetica-Light,Helvetica" font-size="37.2" fill="#FEFFFF" transform="matrix(1.00, 0.00, -0.00, -1.00, 148.5, 81.9)">i</text><text xml:space="preserve" font-family="Helvetica-Light,Helvetica" font-size="37.2" fill="#FEFFFF" transform="matrix(1.00, 0.00, -0.00, -1.00, 156.7, 81.9)">e</text><text xml:space="preserve" font-family="Helvetica-Light,Helvetica" font-size="37.2" fill="#FEFFFF" transform="matrix(1.00, 0.00, -0.00, -1.00, 177.4, 81.9)">n</text><text xml:space="preserve" font-family="Helvetica-Light,Helvetica" font-size="37.2" fill="#FEFFFF" transform="matrix(1.00, 0.00, -0.00, -1.00, 198.1, 81.9)">t</text><text xml:space="preserve" font-family="Helvetica-Light,Helvetica" font-size="37.2" fill="#FEFFFF" transform="matrix(1.00, 0.00, -0.00, -1.00, 208.5, 81.9)"> </text><text xml:space="preserve" font-family="Helvetica-Light,Helvetica" font-size="37.2" fill="#FEFFFF" transform="matrix(1.00, 0.00, -0.00, -1.00, 218.8, 81.9)">S</text><text xml:space="preserve" font-family="Helvetica-Light,Helvetica" font-size="37.2" fill="#FEFFFF" transform="matrix(1.00, 0.00, -0.00, -1.00, 241.6, 81.9)">D</text><text xml:space="preserve" font-family="Helvetica-Light,Helvetica" font-size="37.2" fill="#FEFFFF" transform="matrix(1.00, 0.00, -0.00, -1.00, 268.5, 81.9)">K</text></g></svg>