<svg width="858" height="175" viewBox="0 0 858 175" fill="none"
    xmlns="http://www.w3.org/2000/svg">
    <path d="M126.255 1.74494C111.432 5.55054 28.7181 26.9821 23.6656 28.284C21.8922 28.7847 20.2861 29.6861 18.9142 30.9212C17.5423 32.1564 16.5051 33.692 15.8359 35.3945C14.1294 39.9345 2.35133 70.179 0.945991 73.7843C0.243323 75.3199 -0.0578202 77.0224 0.00910057 78.7249C0.0760213 80.4274 0.544467 82.0631 1.34752 83.5653L33.5029 151.131C34.2056 152.734 35.3098 154.136 36.6817 155.237C38.0536 156.339 39.6596 157.107 41.3661 157.474L113.206 173.731C115.213 174.199 117.288 174.099 119.228 173.431C121.169 172.763 122.876 171.595 124.181 169.993L169.687 116.981C172.364 113.843 176.847 104.596 174.003 95.6498L147.67 12.8947C143.889 1.01053 136.159 -0.825506 126.322 1.74494H126.255Z" fill="#E4032E"/>
    <path d="M290.412 105.431H264.246V72.1821H232.091V105.431H205.858V22.2419H232.091V50.7839H264.246V22.2419H290.412V105.431Z" fill="#E4032E"/>
    <path d="M298.743 30.7213C298.743 27.6167 299.847 25.2465 302.056 23.5774C304.264 21.9083 307.376 21.0737 311.358 21.0737C315.34 21.0737 318.217 21.9083 320.426 23.6108C322.634 25.3133 323.738 27.6501 323.738 30.7213C323.738 33.7924 322.634 36.2961 320.426 37.9986C318.217 39.7345 315.206 40.5691 311.358 40.5691C307.51 40.5691 304.264 39.7345 302.056 38.032C299.847 36.3629 298.743 33.8926 298.743 30.6879V30.7213ZM299.312 46.0438H323.169V105.465H299.312V46.0104V46.0438Z" fill="#E4032E"/>
    <path d="M331.903 65.0716C331.903 58.729 334.613 53.7884 340.034 50.2164C345.454 46.6445 352.916 44.8752 362.419 44.8752H402.303V59.5635H391.429C392.399 62.2341 392.868 64.3706 392.868 66.0063C392.868 72.2822 390.191 77.0559 384.837 80.3274C379.45 83.5989 371.955 85.268 362.385 85.268C355.258 85.268 351.678 86.3696 351.644 88.5729C351.644 90.6092 355.225 91.6441 362.385 91.6441C373.963 91.6441 382.83 93.0795 388.953 95.9838C395.043 98.8881 398.087 103.929 398.087 111.139C398.087 118.35 395.043 123.157 388.953 126.061C382.83 128.966 373.963 130.401 362.385 130.401C350.808 130.401 341.974 128.966 335.818 126.095C329.694 123.19 326.616 118.216 326.616 111.139C326.616 107.434 327.62 104.229 329.594 101.559C331.535 98.9214 333.442 97.2189 335.349 96.3844L338.193 95.216V94.7486C337.123 94.2479 336.085 93.3466 335.115 92.0113C334.312 90.9764 333.91 89.808 333.91 88.5395C333.91 87.0039 334.479 85.5685 335.583 84.2332C336.721 83.0314 337.825 82.1634 338.896 81.6293L340.569 81.0618V80.5945C339.866 80.3274 338.863 79.593 337.558 78.458C336.52 77.5233 335.65 76.5552 334.948 75.5537C332.907 72.6494 331.869 69.1443 331.869 65.0382L331.903 65.0716ZM371.921 114.511C373.862 113.944 374.832 112.809 374.832 111.139C374.832 109.47 373.862 108.369 371.921 107.835C369.88 107.3 366.702 107.033 362.452 107.033C358.203 107.033 354.957 107.3 352.983 107.835C351.042 108.369 350.072 109.47 350.072 111.139C350.072 112.809 351.042 113.91 352.983 114.511C354.957 115.045 358.136 115.312 362.452 115.312C366.769 115.312 369.88 115.045 371.921 114.511ZM362.452 71.0137C367.438 71.0137 369.947 69.0775 369.947 65.1384C369.947 61.1993 367.438 59.3298 362.452 59.3298C357.467 59.3298 354.723 61.266 354.723 65.1384C354.689 67.0746 355.325 68.5434 356.597 69.5115C357.902 70.513 359.842 70.9803 362.452 70.9803V71.0137Z" fill="#E4032E"/>
    <path d="M473.071 105.431H449.281V76.7889C449.281 73.4172 448.277 70.7133 446.27 68.7103C444.262 66.674 441.485 65.6725 437.938 65.6725C434.391 65.6725 431.547 66.674 429.606 68.6436C427.632 70.6465 426.662 73.3505 426.662 76.7889V105.431H402.805V22.2419H426.662V56.6926H427.833C428.101 55.7579 429.004 54.3559 430.51 52.5198C431.547 51.2513 432.852 50.0495 434.358 48.9813C436.031 47.8463 438.206 46.8782 440.883 46.077C443.559 45.2758 446.37 44.8752 449.315 44.8752C456.676 44.8752 462.498 46.945 466.747 51.0844C470.963 55.2572 473.071 61.4997 473.071 69.8119V105.431Z" fill="#E4032E"/>
    <path d="M507.637 84.0329H552.876V105.431H481.404V22.2419H507.637V84.0329Z" fill="#E4032E"/>
    <path d="M557.827 98.7545C551.336 93.5468 548.124 85.8688 548.124 75.7206C548.124 65.5723 551.369 57.8943 557.827 52.6867C564.252 47.479 572.951 44.8418 583.893 44.8418C594.834 44.8418 603.434 47.4456 609.892 52.6867C616.349 57.8943 619.595 65.5723 619.595 75.7206C619.595 85.8688 616.349 93.5468 609.892 98.7545C603.467 103.962 594.801 106.599 583.893 106.599C572.985 106.599 564.285 103.996 557.827 98.7545ZM592.425 83.8325C594.399 81.8296 595.403 79.1256 595.403 75.7206C595.403 72.3156 594.399 69.5782 592.425 67.5419C590.451 65.5389 587.607 64.5374 583.893 64.5374C580.179 64.5374 577.268 65.5389 575.294 67.5419C573.319 69.5782 572.316 72.3156 572.316 75.7206C572.316 79.1256 573.319 81.8296 575.294 83.8325C577.268 85.8688 580.145 86.9037 583.893 86.9037C587.64 86.9037 590.451 85.8688 592.425 83.8325Z" fill="#E4032E"/>
    <path d="M622.507 88.2057C622.507 81.9298 624.916 77.2897 629.768 74.2853C634.62 71.3142 640.944 69.812 648.74 69.812C652.655 69.812 656.135 70.1458 659.213 70.8135C662.157 71.4477 664.098 72.1154 665.035 72.9166L666.373 73.8513V66.2401C666.373 64.4708 665.805 63.1355 664.667 62.2342C663.529 61.3329 661.522 60.8989 658.644 60.8989C653.424 60.8989 650.781 62.6682 650.781 66.2401H625.719C625.719 59.2298 628.53 53.922 634.185 50.3167C639.839 46.7113 647.97 44.9087 658.644 44.9087C669.318 44.9087 677.282 46.6446 682.434 50.083C687.587 53.5214 690.164 58.9293 690.164 66.2735V81.1287C690.164 82.9981 690.398 84.2666 690.833 85.001C691.268 85.7354 692.071 86.1026 693.175 86.1026L694.915 85.869V105.464C693.142 106.232 689.963 106.633 685.446 106.633C680.494 106.633 676.612 105.531 673.869 103.328C671.593 101.559 669.987 99.8228 669.084 98.1203L668.749 97.1856H667.545C667.143 98.1871 666.44 99.2887 665.403 100.49C664.399 101.625 663.195 102.594 661.789 103.395C660.284 104.296 658.142 105.064 655.365 105.698C652.588 106.332 649.61 106.666 646.398 106.666C639.471 106.666 633.75 105.131 629.232 102.026C624.782 98.9549 622.54 94.3815 622.54 88.2725L622.507 88.2057ZM646.364 86.5366C646.364 89.0737 649.71 90.3756 656.369 90.3756C663.027 90.3756 666.373 89.1071 666.373 86.5366C666.373 83.9662 663.027 82.7644 656.369 82.7644C649.71 82.7644 646.364 84.0329 646.364 86.5366Z" fill="#E4032E"/>
    <path d="M704.384 98.5876C699.264 93.2464 696.721 85.6352 696.721 75.7206C696.721 65.806 699.264 58.1949 704.384 52.8537C709.503 47.5125 715.861 44.8419 723.523 44.8419C727.706 44.8419 731.453 45.4094 734.799 46.5778C738.078 47.8129 740.32 49.0147 741.491 50.1831L743.298 51.9189H744.335V22.2419H768.193V105.431H744.335V94.7486H743.164C742.529 96.1173 741.692 97.486 740.621 98.8547C739.417 100.29 738.212 101.459 736.974 102.393C735.468 103.562 733.494 104.53 731.085 105.364C728.676 106.165 726.166 106.566 723.557 106.566C715.928 106.566 709.537 103.895 704.417 98.5542L704.384 98.5876ZM724.694 68.3765C722.72 70.1792 721.716 72.6495 721.716 75.754C721.716 78.8586 722.687 81.2955 724.627 83.1315C726.568 84.9342 729.379 85.8689 733.059 85.8689C736.74 85.8689 739.45 84.9676 741.391 83.1649C743.332 81.3623 744.335 78.892 744.335 75.754C744.335 72.6161 743.332 70.1124 741.358 68.3431C739.383 66.5738 736.606 65.6725 733.026 65.6725C729.446 65.6725 726.601 66.5738 724.661 68.4099L724.694 68.3765Z" fill="#E4032E"/>
    <path d="M803.828 46.0769V58.9959H792.485V46.0769H779.335V35.0941H792.485V22.175H803.828V35.0941H816.944V46.0769H803.828Z" fill="#E4032E"/>
    <path d="M844.884 46.0769V58.9959H833.54V46.0769H820.391V35.0941H833.54V22.175H844.884V35.0941H858V46.0769H844.884Z" fill="#E4032E"/>
    <mask id="mask0_355_304" style="mask-type:luminance" maskUnits="userSpaceOnUse" x="0" y="0" width="175" height="175">
        <path d="M126.255 1.74494C111.432 5.55054 28.7181 26.9821 23.6656 28.284C21.8922 28.7847 20.2861 29.6861 18.9142 30.9212C17.5423 32.1564 16.5051 33.692 15.8359 35.3945C14.1294 39.9345 2.35133 70.179 0.945991 73.7843C0.243323 75.3199 -0.0578202 77.0224 0.00910057 78.7249C0.0760213 80.4274 0.544467 82.0631 1.34752 83.5653L33.5029 151.131C34.2056 152.734 35.3098 154.136 36.6817 155.237C38.0536 156.339 39.6596 157.107 41.3661 157.474L113.206 173.731C115.213 174.199 117.288 174.099 119.228 173.431C121.169 172.763 122.876 171.595 124.181 169.993L169.687 116.981C172.364 113.843 176.847 104.596 174.003 95.6498L147.67 12.8947C143.889 1.01053 136.159 -0.825506 126.322 1.74494H126.255Z" fill="white"/>
    </mask>
    <g mask="url(#mask0_355_304)">
        <path d="M96.0739 105.531H69.9414V72.3155H37.8194V105.531H11.5865V22.4087H37.786V50.9173H69.9079V22.4087H96.0405V105.531H96.0739Z" fill="white"/>
        <path d="M131.743 84.1329H176.947V105.531H105.543V22.4087H131.743V84.1329Z" fill="white"/>
    </g>
</svg>
