<svg xmlns="http://www.w3.org/2000/svg" width="392" height="192" fill="none">
  <g clip-path="url(#a)">
    <path fill="#fff" d="M217.4 13.52C142.6-12 95.8 60.6 95.8 60.6c29.88 6.16 77.8-5.72 77.8-5.72 15.48-21.28 43.88-41.36 43.88-41.36h-.08Zm96.2 14.8.4 33.04.4 32.68 26.6.08-.08-11.28-14.12-.8-.16-14.2c4.12.48 8.12 1 11.96 1.4l-.08-11.36-12-2.08-.08-12.24 13.72 3.04-.08-11.08-26.4-7.32-.08.08v.04Zm53.6 33.44c0-3.6 0-6.2-.2-8.36a18.799 18.799 0 0 0-1.2-5.56 13.488 13.488 0 0 0-9.2-8.6c-4.48-1.24-9.12-.6-11.2 5.6a27.941 27.941 0 0 0-1.08 7.32c-.08 2.64-.08 5.2-.08 7.88v7.8c0 4 .08 7.96.24 11.84.16 3.4.52 4.88.92 6.48 1 3.48 4.16 9.04 10.88 9.04.92 0 2 0 3.84-.68 1.56-.56 2.32-1.08 2.96-1.64 1.08-.92 1.84-2.24 2.08-2.76 1.44-2.64 1.84-5.4 1.92-8.6.08-2.4 0-5 0-7.4-2.64-.32-5.4-.56-8.24-.92l-.08 3.92.08 3.72c0 3.6-1.08 4.88-2.24 4.8a2.36 2.36 0 0 1-1.6-.72c-1.04-1.2-.96-3-.96-5.08l-.08-12.52-.08-12.6c0-3.2.16-4.64 1.08-5.36a1.844 1.844 0 0 1 1.48-.36c1 .28 1.76 1.44 2.08 2.92.24 1.2.16 3.32.16 3.48l.08 5.32c2.8.48 5.6.96 8.24 1.48l.16-.4.04-.04Zm-94.36-45.08.24 14.68c4.16.92 8.24 1.92 12.2 2.72l.52 30 .48 29.76 15.56.08-.4-28c-.2-9.36-.28-18.8-.44-28.28 3.32.8 6.64 1.52 9.8 2.24l-.16-12.68c-11.48-3.12-24.08-6.72-38-10.52h.2Zm97.84 27.2.08 25.2c0 8.4.12 16.64.12 24.96h7.36V73.56c1.52.16 3 .32 4.48.56v20.04h6.48V49.08l-6.48-1.8V64.6l-4.56-.8V45.88l-7.48-2.08v.08ZM248.4 95.6c0 4.32 0 8.6-.08 12.92l9.32-.16-.08 27.52-.08 27.52 12.88-1.24.08-26.96.08-26.92 8.64-.16V95.76c-10 0-20.28 0-30.8-.08l.04-.08Zm33.32.16-.08 32.56-.08 32.68 11.72-1.16v-28.2c3.64-.32 5.32.2 6 2.52.56 1.72.48 4.8.48 5.12v13c0 3.24.08 3.92.72 6.96 3.84-.4 7.6-.72 11.2-1.04-.8-3-.88-3.84-.88-7.08 0-4.2.08-8.52 0-12.76-.08-4.48-.24-8.6-3.08-11.2a11.535 11.535 0 0 0-2.72-1.64c2.24-1.64 3.04-2.48 3.8-3.88 1.24-2.16 2-4.64 2-10.2 0-8.28-2-13.68-8.48-15.2-1.16-.24-1.48-.32-3.48-.32-5.64-.08-11.32 0-17.12 0v-.16Zm11.6 10.68c3.68-.08 5.2 0 6.08 2.24.8 1.76.68 4.24.68 4.8 0 2.6-.08 5.48-2 6.8-.92.68-2.48.84-4.8 1 0-4.96 0-9.84.08-14.8l-.04-.04Zm30-10.6-4.56 30.6c-1.48 10.28-3.08 20.64-4.64 31.08 3.64-.32 7.2-.76 10.8-1.08.32-3.72.76-7.36 1.08-11.12l8.04-.64 1.2 10.8c3.48-.4 6.88-.68 10.28-1.04l-4.32-29.08-4.4-29.52h-13.6.12Zm3.92 38.8c.52-4.8 1-9.6 1.6-14.4.48-5 1-10.04 1.4-15.12l1.08 12.68.8 8.2.84 8.16c-1.88.16-3.8.32-5.72.4v.08Zm21.92-38.72c0 9.72 0 19.4-.08 29.12 0 9.68 0 19.48-.08 29.16l9.72-1v-28.68c0-9.52 0-19.04.08-28.68h-9.72l.08.08Zm15.6 0-.04 28.28v28.36c2.88-.28 5.8-.6 8.72-.84v-16.88c0-2.8 0-5.48-.08-8.2-.08-4.4-.36-8.8-.6-13.2l2.32 13.52c.76 4 1.6 7.8 2.4 11.72l2.52 12.4 9.2-.88V96H381v18.68c0 3.04.16 6.12.24 9.12.08 2.96.16 6 .32 9-.4-2.8-.92-5.52-1.32-8.36-.4-2.8-.92-5.56-1.4-8.4-.6-3.36-1.32-6.8-2-10.08-.68-3.32-1.4-6.72-2.16-10h-9.88l-.04-.04Zm-283.2 3.32 6.4-18.64H78.4l-7.6 18.24 8.56.24-6.2-1.48L80 81.76l5.32.16-3.84 17.32h.08Zm28.96.68 21.84-17.52 12.2-.56-17.52 17.4-14.8.92 15.32 1 23.08-20.64h-20.4l-19.72 19.32v.08Zm4.16 52.56c62.64-2.6 70-27.44 128.6-32-67.48 2.48-64.32 25-128.6 32ZM66.8 119.4s.08 4.12 2.56 6.72c0 0 47.6 4.64 77.68-5.4 52.64-22.88 97.92-23.96 97.76-23.96-4-.68-39.2-5.04-67.12 6 0 0-41.36 17.12-64.88 17.96 0 0-40.88.32-46.08-1.32h.08Zm118-70.32c42.4-35.96 84.76-22 84.76-22v-3.76c-51.2-12.52-84.64 25.76-84.64 25.76h-.12ZM233 156.04c0-1.44-.8-2.6-1.84-2.6-.96 0-1.8 1.2-1.8 2.6 0 1.4.8 2.56 1.8 2.56s1.84-1.2 1.84-2.56Zm-3.6 10.2c-3.96 0-7.2-4.56-7.2-10.2s3.24-10.2 7.2-10.2h.28c-.68-.24-1.24-.4-2-.4-4.16 0-7.48 4.68-7.48 10.52 0 5.8 3.32 10.52 7.48 10.52.68 0 1.32-.16 2-.4h-.24v.16h-.04ZM121.6 28C168.04-12.36 245.04 2.76 245.04 2.76l146.88 45 .08 105.36L31.64 192l163.32-28 1.24-7.4c11.6-2.72 21.04-13.36 21.04-13.36l37.44-.64v-4h-39.96c-11.88 13.36-25 15.92-25 15.92l-2.56 6.96-97.36.52L0 167.56 90 159l.2-5.04 12.88-1.08c-31.72 0-39.36-26.68-39.36-26.68 7.6 15.4 27.92 11.6 27.92 11.6-37.48 0-26.4-32.76-26.4-32.76 12.76-39.36 56.44-77.2 56.44-77.2l-.08.2V28Z"/>
  </g>
  <defs>
    <clipPath id="a">
      <path fill="#fff" d="M0 0h392v192H0z"/>
    </clipPath>
  </defs>
</svg>
