<?xml version="1.0" encoding="UTF-8"?><svg xmlns="http://www.w3.org/2000/svg" xmlns:xlink="http://www.w3.org/1999/xlink" clip-rule="evenodd" stroke-miterlimit="10" viewBox="0 0 1024 768"><desc>SVG generated by Keynote</desc><defs></defs><g transform="matrix(1.00, 0.00, -0.00, -1.00, 0.0, 768.0)"><path d="M 0.0 0.0 L 1024.0 0.0 L 1024.0 768.0 L 0.0 768.0 Z M 0.0 0.0 " fill="#000000"></path><text xml:space="preserve" font-family="Helvetica-Light,Helvetica" font-size="80.0" fill="#FEFFFF" transform="matrix(1.00, 0.00, -0.00, -1.00, 289.7, 633.4)">M</text><text xml:space="preserve" font-family="Helvetica-Light,Helvetica" font-size="80.0" fill="#FEFFFF" transform="matrix(1.00, 0.00, -0.00, -1.00, 356.4, 633.4)">o</text><text xml:space="preserve" font-family="Helvetica-Light,Helvetica" font-size="80.0" fill="#FEFFFF" transform="matrix(1.00, 0.00, -0.00, -1.00, 400.8, 633.4)">d</text><text xml:space="preserve" font-family="Helvetica-Light,Helvetica" font-size="80.0" fill="#FEFFFF" transform="matrix(1.00, 0.00, -0.00, -1.00, 449.7, 633.4)">e</text><text xml:space="preserve" font-family="Helvetica-Light,Helvetica" font-size="80.0" fill="#FEFFFF" transform="matrix(1.00, 0.00, -0.00, -1.00, 494.2, 633.4)">l</text><text xml:space="preserve" font-family="Helvetica-Light,Helvetica" font-size="80.0" fill="#FEFFFF" transform="matrix(1.00, 0.00, -0.00, -1.00, 512.0, 633.4)"> </text><text xml:space="preserve" font-family="Helvetica-Light,Helvetica" font-size="80.0" fill="#FEFFFF" transform="matrix(1.00, 0.00, -0.00, -1.00, 534.2, 633.4)">L</text><text xml:space="preserve" font-family="Helvetica-Light,Helvetica" font-size="80.0" fill="#FEFFFF" transform="matrix(1.00, 0.00, -0.00, -1.00, 578.7, 633.4)">o</text><text xml:space="preserve" font-family="Helvetica-Light,Helvetica" font-size="80.0" fill="#FEFFFF" transform="matrix(1.00, 0.00, -0.00, -1.00, 623.2, 633.4)">g</text><text xml:space="preserve" font-family="Helvetica-Light,Helvetica" font-size="80.0" fill="#FEFFFF" transform="matrix(1.00, 0.00, -0.00, -1.00, 672.0, 633.4)">i</text><text xml:space="preserve" font-family="Helvetica-Light,Helvetica" font-size="80.0" fill="#FEFFFF" transform="matrix(1.00, 0.00, -0.00, -1.00, 689.8, 633.4)">c</text><text xml:space="preserve" font-family="Helvetica-Light,Helvetica" font-size="36.0" fill="#7ADA45" transform="matrix(1.00, 0.00, -0.00, -1.00, 158.7, 517.8)">m</text><text xml:space="preserve" font-family="Helvetica-Light,Helvetica" font-size="36.0" fill="#7ADA45" transform="matrix(1.00, 0.00, -0.00, -1.00, 188.7, 517.8)">o</text><text xml:space="preserve" font-family="Helvetica-Light,Helvetica" font-size="36.0" fill="#7ADA45" transform="matrix(1.00, 0.00, -0.00, -1.00, 208.7, 517.8)">d</text><text xml:space="preserve" font-family="Helvetica-Light,Helvetica" font-size="36.0" fill="#7ADA45" transform="matrix(1.00, 0.00, -0.00, -1.00, 230.7, 517.8)">u</text><text xml:space="preserve" font-family="Helvetica-Light,Helvetica" font-size="36.0" fill="#7ADA45" transform="matrix(1.00, 0.00, -0.00, -1.00, 250.8, 517.8)">l</text><text xml:space="preserve" font-family="Helvetica-Light,Helvetica" font-size="36.0" fill="#7ADA45" transform="matrix(1.00, 0.00, -0.00, -1.00, 258.7, 517.8)">e</text><text xml:space="preserve" font-family="Helvetica-Light,Helvetica" font-size="36.0" fill="#7ADA45" transform="matrix(1.00, 0.00, -0.00, -1.00, 278.8, 517.8)">.</text><text xml:space="preserve" font-family="Helvetica-Light,Helvetica" font-size="36.0" fill="#7ADA45" transform="matrix(1.00, 0.00, -0.00, -1.00, 288.8, 517.8)">e</text><text xml:space="preserve" font-family="Helvetica-Light,Helvetica" font-size="36.0" fill="#7ADA45" transform="matrix(1.00, 0.00, -0.00, -1.00, 308.8, 517.8)">x</text><text xml:space="preserve" font-family="Helvetica-Light,Helvetica" font-size="36.0" fill="#7ADA45" transform="matrix(1.00, 0.00, -0.00, -1.00, 326.8, 517.8)">p</text><text xml:space="preserve" font-family="Helvetica-Light,Helvetica" font-size="36.0" fill="#7ADA45" transform="matrix(1.00, 0.00, -0.00, -1.00, 348.8, 517.8)">o</text><text xml:space="preserve" font-family="Helvetica-Light,Helvetica" font-size="36.0" fill="#7ADA45" transform="matrix(1.00, 0.00, -0.00, -1.00, 368.8, 517.8)">r</text><text xml:space="preserve" font-family="Helvetica-Light,Helvetica" font-size="36.0" fill="#7ADA45" transform="matrix(1.00, 0.00, -0.00, -1.00, 381.4, 517.8)">t</text><text xml:space="preserve" font-family="Helvetica-Light,Helvetica" font-size="36.0" fill="#7ADA45" transform="matrix(1.00, 0.00, -0.00, -1.00, 391.4, 517.8)">s</text><text xml:space="preserve" font-family="Helvetica-Light,Helvetica" font-size="36.0" fill="#7ADA45" transform="matrix(1.00, 0.00, -0.00, -1.00, 409.4, 517.8)"> </text><text xml:space="preserve" font-family="Helvetica-Light,Helvetica" font-size="36.0" fill="#7ADA45" transform="matrix(1.00, 0.00, -0.00, -1.00, 419.4, 517.8)">=</text><text xml:space="preserve" font-family="Helvetica-Light,Helvetica" font-size="36.0" fill="#7ADA45" transform="matrix(1.00, 0.00, -0.00, -1.00, 443.2, 517.8)"> </text><text xml:space="preserve" font-family="Helvetica-Light,Helvetica" font-size="36.0" fill="#7ADA45" transform="matrix(1.00, 0.00, -0.00, -1.00, 453.2, 517.8)">f</text><text xml:space="preserve" font-family="Helvetica-Light,Helvetica" font-size="36.0" fill="#7ADA45" transform="matrix(1.00, 0.00, -0.00, -1.00, 463.2, 517.8)">u</text><text xml:space="preserve" font-family="Helvetica-Light,Helvetica" font-size="36.0" fill="#7ADA45" transform="matrix(1.00, 0.00, -0.00, -1.00, 483.2, 517.8)">n</text><text xml:space="preserve" font-family="Helvetica-Light,Helvetica" font-size="36.0" fill="#7ADA45" transform="matrix(1.00, 0.00, -0.00, -1.00, 503.3, 517.8)">c</text><text xml:space="preserve" font-family="Helvetica-Light,Helvetica" font-size="36.0" fill="#7ADA45" transform="matrix(1.00, 0.00, -0.00, -1.00, 523.3, 517.8)">t</text><text xml:space="preserve" font-family="Helvetica-Light,Helvetica" font-size="36.0" fill="#7ADA45" transform="matrix(1.00, 0.00, -0.00, -1.00, 533.3, 517.8)">i</text><text xml:space="preserve" font-family="Helvetica-Light,Helvetica" font-size="36.0" fill="#7ADA45" transform="matrix(1.00, 0.00, -0.00, -1.00, 541.3, 517.8)">o</text><text xml:space="preserve" font-family="Helvetica-Light,Helvetica" font-size="36.0" fill="#7ADA45" transform="matrix(1.00, 0.00, -0.00, -1.00, 561.3, 517.8)">n</text><text xml:space="preserve" font-family="Helvetica-Light,Helvetica" font-size="36.0" fill="#7ADA45" transform="matrix(1.00, 0.00, -0.00, -1.00, 581.3, 517.8)">(</text><text xml:space="preserve" font-family="Helvetica-Light,Helvetica" font-size="36.0" fill="#7ADA45" transform="matrix(1.00, 0.00, -0.00, -1.00, 593.3, 517.8)">P</text><text xml:space="preserve" font-family="Helvetica-Light,Helvetica" font-size="36.0" fill="#7ADA45" transform="matrix(1.00, 0.00, -0.00, -1.00, 615.3, 517.8)">e</text><text xml:space="preserve" font-family="Helvetica-Light,Helvetica" font-size="36.0" fill="#7ADA45" transform="matrix(1.00, 0.00, -0.00, -1.00, 635.3, 517.8)">r</text><text xml:space="preserve" font-family="Helvetica-Light,Helvetica" font-size="36.0" fill="#7ADA45" transform="matrix(1.00, 0.00, -0.00, -1.00, 647.3, 517.8)">s</text><text xml:space="preserve" font-family="Helvetica-Light,Helvetica" font-size="36.0" fill="#7ADA45" transform="matrix(1.00, 0.00, -0.00, -1.00, 665.3, 517.8)">o</text><text xml:space="preserve" font-family="Helvetica-Light,Helvetica" font-size="36.0" fill="#7ADA45" transform="matrix(1.00, 0.00, -0.00, -1.00, 685.3, 517.8)">n</text><text xml:space="preserve" font-family="Helvetica-Light,Helvetica" font-size="36.0" fill="#7ADA45" transform="matrix(1.00, 0.00, -0.00, -1.00, 705.3, 517.8)">)</text><text xml:space="preserve" font-family="Helvetica-Light,Helvetica" font-size="36.0" fill="#7ADA45" transform="matrix(1.00, 0.00, -0.00, -1.00, 717.3, 517.8)">{</text><text xml:space="preserve" font-family="Helvetica-Light,Helvetica" font-size="36.0" fill="#7ADA45" transform="matrix(1.00, 0.00, -0.00, -1.00, 729.3, 517.8)"> </text><text xml:space="preserve" font-family="Helvetica-Light,Helvetica" font-size="36.0" fill="#7ADA45" transform="matrix(1.00, 0.00, -0.00, -1.00, 158.7, 431.8)"> </text><text xml:space="preserve" font-family="Helvetica-Light,Helvetica" font-size="36.0" fill="#7ADA45" transform="matrix(1.00, 0.00, -0.00, -1.00, 168.7, 431.8)"> </text><text xml:space="preserve" font-family="Helvetica-Light,Helvetica" font-size="36.0" fill="#7ADA45" transform="matrix(1.00, 0.00, -0.00, -1.00, 178.8, 431.8)"> </text><text xml:space="preserve" font-family="Helvetica-Light,Helvetica" font-size="36.0" fill="#7ADA45" transform="matrix(1.00, 0.00, -0.00, -1.00, 188.8, 431.8)"> </text><text xml:space="preserve" font-family="Helvetica-Light,Helvetica" font-size="36.0" fill="#7ADA45" transform="matrix(1.00, 0.00, -0.00, -1.00, 198.8, 431.8)">P</text><text xml:space="preserve" font-family="Helvetica-Light,Helvetica" font-size="36.0" fill="#7ADA45" transform="matrix(1.00, 0.00, -0.00, -1.00, 220.8, 431.8)">e</text><text xml:space="preserve" font-family="Helvetica-Light,Helvetica" font-size="36.0" fill="#7ADA45" transform="matrix(1.00, 0.00, -0.00, -1.00, 240.8, 431.8)">r</text><text xml:space="preserve" font-family="Helvetica-Light,Helvetica" font-size="36.0" fill="#7ADA45" transform="matrix(1.00, 0.00, -0.00, -1.00, 252.8, 431.8)">s</text><text xml:space="preserve" font-family="Helvetica-Light,Helvetica" font-size="36.0" fill="#7ADA45" transform="matrix(1.00, 0.00, -0.00, -1.00, 270.8, 431.8)">o</text><text xml:space="preserve" font-family="Helvetica-Light,Helvetica" font-size="36.0" fill="#7ADA45" transform="matrix(1.00, 0.00, -0.00, -1.00, 290.8, 431.8)">n</text><text xml:space="preserve" font-family="Helvetica-Light,Helvetica" font-size="36.0" fill="#7ADA45" transform="matrix(1.00, 0.00, -0.00, -1.00, 310.8, 431.8)">.</text><text xml:space="preserve" font-family="Helvetica-Light,Helvetica" font-size="36.0" fill="#7ADA45" transform="matrix(1.00, 0.00, -0.00, -1.00, 320.8, 431.8)">g</text><text xml:space="preserve" font-family="Helvetica-Light,Helvetica" font-size="36.0" fill="#7ADA45" transform="matrix(1.00, 0.00, -0.00, -1.00, 342.8, 431.8)">r</text><text xml:space="preserve" font-family="Helvetica-Light,Helvetica" font-size="36.0" fill="#7ADA45" transform="matrix(1.00, 0.00, -0.00, -1.00, 354.1, 431.8)">e</text><text xml:space="preserve" font-family="Helvetica-Light,Helvetica" font-size="36.0" fill="#7ADA45" transform="matrix(1.00, 0.00, -0.00, -1.00, 374.2, 431.8)">e</text><text xml:space="preserve" font-family="Helvetica-Light,Helvetica" font-size="36.0" fill="#7ADA45" transform="matrix(1.00, 0.00, -0.00, -1.00, 394.2, 431.8)">t</text><text xml:space="preserve" font-family="Helvetica-Light,Helvetica" font-size="36.0" fill="#7ADA45" transform="matrix(1.00, 0.00, -0.00, -1.00, 404.2, 431.8)"> </text><text xml:space="preserve" font-family="Helvetica-Light,Helvetica" font-size="36.0" fill="#7ADA45" transform="matrix(1.00, 0.00, -0.00, -1.00, 414.2, 431.8)">=</text><text xml:space="preserve" font-family="Helvetica-Light,Helvetica" font-size="36.0" fill="#7ADA45" transform="matrix(1.00, 0.00, -0.00, -1.00, 438.0, 431.8)"> </text><text xml:space="preserve" font-family="Helvetica-Light,Helvetica" font-size="36.0" fill="#7ADA45" transform="matrix(1.00, 0.00, -0.00, -1.00, 448.0, 431.8)">f</text><text xml:space="preserve" font-family="Helvetica-Light,Helvetica" font-size="36.0" fill="#7ADA45" transform="matrix(1.00, 0.00, -0.00, -1.00, 458.0, 431.8)">u</text><text xml:space="preserve" font-family="Helvetica-Light,Helvetica" font-size="36.0" fill="#7ADA45" transform="matrix(1.00, 0.00, -0.00, -1.00, 478.0, 431.8)">n</text><text xml:space="preserve" font-family="Helvetica-Light,Helvetica" font-size="36.0" fill="#7ADA45" transform="matrix(1.00, 0.00, -0.00, -1.00, 498.0, 431.8)">c</text><text xml:space="preserve" font-family="Helvetica-Light,Helvetica" font-size="36.0" fill="#7ADA45" transform="matrix(1.00, 0.00, -0.00, -1.00, 518.0, 431.8)">t</text><text xml:space="preserve" font-family="Helvetica-Light,Helvetica" font-size="36.0" fill="#7ADA45" transform="matrix(1.00, 0.00, -0.00, -1.00, 528.0, 431.8)">i</text><text xml:space="preserve" font-family="Helvetica-Light,Helvetica" font-size="36.0" fill="#7ADA45" transform="matrix(1.00, 0.00, -0.00, -1.00, 536.0, 431.8)">o</text><text xml:space="preserve" font-family="Helvetica-Light,Helvetica" font-size="36.0" fill="#7ADA45" transform="matrix(1.00, 0.00, -0.00, -1.00, 556.0, 431.8)">n</text><text xml:space="preserve" font-family="Helvetica-Light,Helvetica" font-size="36.0" fill="#7ADA45" transform="matrix(1.00, 0.00, -0.00, -1.00, 576.0, 431.8)">(</text><text xml:space="preserve" font-family="Helvetica-Light,Helvetica" font-size="36.0" fill="#7ADA45" transform="matrix(1.00, 0.00, -0.00, -1.00, 588.0, 431.8)">m</text><text xml:space="preserve" font-family="Helvetica-Light,Helvetica" font-size="36.0" fill="#7ADA45" transform="matrix(1.00, 0.00, -0.00, -1.00, 618.0, 431.8)">s</text><text xml:space="preserve" font-family="Helvetica-Light,Helvetica" font-size="36.0" fill="#7ADA45" transform="matrix(1.00, 0.00, -0.00, -1.00, 636.0, 431.8)">g</text><text xml:space="preserve" font-family="Helvetica-Light,Helvetica" font-size="36.0" fill="#7ADA45" transform="matrix(1.00, 0.00, -0.00, -1.00, 658.0, 431.8)">,</text><text xml:space="preserve" font-family="Helvetica-Light,Helvetica" font-size="36.0" fill="#7ADA45" transform="matrix(1.00, 0.00, -0.00, -1.00, 668.0, 431.8)"> </text><text xml:space="preserve" font-family="Helvetica-Light,Helvetica" font-size="36.0" fill="#7ADA45" transform="matrix(1.00, 0.00, -0.00, -1.00, 678.0, 431.8)">c</text><text xml:space="preserve" font-family="Helvetica-Light,Helvetica" font-size="36.0" fill="#7ADA45" transform="matrix(1.00, 0.00, -0.00, -1.00, 698.1, 431.8)">b</text><text xml:space="preserve" font-family="Helvetica-Light,Helvetica" font-size="36.0" fill="#7ADA45" transform="matrix(1.00, 0.00, -0.00, -1.00, 720.0, 431.8)">)</text><text xml:space="preserve" font-family="Helvetica-Light,Helvetica" font-size="36.0" fill="#7ADA45" transform="matrix(1.00, 0.00, -0.00, -1.00, 732.0, 431.8)"> </text><text xml:space="preserve" font-family="Helvetica-Light,Helvetica" font-size="36.0" fill="#7ADA45" transform="matrix(1.00, 0.00, -0.00, -1.00, 742.0, 431.8)">{</text><text xml:space="preserve" font-family="Helvetica-Light,Helvetica" font-size="36.0" fill="#7ADA45" transform="matrix(1.00, 0.00, -0.00, -1.00, 754.0, 431.8)"> </text><text xml:space="preserve" font-family="Helvetica-Light,Helvetica" font-size="36.0" fill="#7ADA45" transform="matrix(1.00, 0.00, -0.00, -1.00, 158.7, 388.8)"> </text><text xml:space="preserve" font-family="Helvetica-Light,Helvetica" font-size="36.0" fill="#7ADA45" transform="matrix(1.00, 0.00, -0.00, -1.00, 168.7, 388.8)"> </text><text xml:space="preserve" font-family="Helvetica-Light,Helvetica" font-size="36.0" fill="#7ADA45" transform="matrix(1.00, 0.00, -0.00, -1.00, 178.8, 388.8)"> </text><text xml:space="preserve" font-family="Helvetica-Light,Helvetica" font-size="36.0" fill="#7ADA45" transform="matrix(1.00, 0.00, -0.00, -1.00, 188.8, 388.8)"> </text><text xml:space="preserve" font-family="Helvetica-Light,Helvetica" font-size="36.0" fill="#7ADA45" transform="matrix(1.00, 0.00, -0.00, -1.00, 198.8, 388.8)"> </text><text xml:space="preserve" font-family="Helvetica-Light,Helvetica" font-size="36.0" fill="#7ADA45" transform="matrix(1.00, 0.00, -0.00, -1.00, 208.8, 388.8)"> </text><text xml:space="preserve" font-family="Helvetica-Light,Helvetica" font-size="36.0" fill="#7ADA45" transform="matrix(1.00, 0.00, -0.00, -1.00, 218.8, 388.8)">c</text><text xml:space="preserve" font-family="Helvetica-Light,Helvetica" font-size="36.0" fill="#7ADA45" transform="matrix(1.00, 0.00, -0.00, -1.00, 238.8, 388.8)">b</text><text xml:space="preserve" font-family="Helvetica-Light,Helvetica" font-size="36.0" fill="#7ADA45" transform="matrix(1.00, 0.00, -0.00, -1.00, 260.8, 388.8)">(</text><text xml:space="preserve" font-family="Helvetica-Light,Helvetica" font-size="36.0" fill="#7ADA45" transform="matrix(1.00, 0.00, -0.00, -1.00, 272.8, 388.8)">n</text><text xml:space="preserve" font-family="Helvetica-Light,Helvetica" font-size="36.0" fill="#7ADA45" transform="matrix(1.00, 0.00, -0.00, -1.00, 292.8, 388.8)">u</text><text xml:space="preserve" font-family="Helvetica-Light,Helvetica" font-size="36.0" fill="#7ADA45" transform="matrix(1.00, 0.00, -0.00, -1.00, 312.8, 388.8)">l</text><text xml:space="preserve" font-family="Helvetica-Light,Helvetica" font-size="36.0" fill="#7ADA45" transform="matrix(1.00, 0.00, -0.00, -1.00, 320.8, 388.8)">l</text><text xml:space="preserve" font-family="Helvetica-Light,Helvetica" font-size="36.0" fill="#7ADA45" transform="matrix(1.00, 0.00, -0.00, -1.00, 328.8, 388.8)">,</text><text xml:space="preserve" font-family="Helvetica-Light,Helvetica" font-size="36.0" fill="#7ADA45" transform="matrix(1.00, 0.00, -0.00, -1.00, 338.8, 388.8)"> </text><text xml:space="preserve" font-family="Helvetica-Light,Helvetica" font-size="36.0" fill="#7ADA45" transform="matrix(1.00, 0.00, -0.00, -1.00, 348.8, 388.8)">'</text><text xml:space="preserve" font-family="Helvetica-Light,Helvetica" font-size="36.0" fill="#7ADA45" transform="matrix(1.00, 0.00, -0.00, -1.00, 356.8, 388.8)">G</text><text xml:space="preserve" font-family="Helvetica-Light,Helvetica" font-size="36.0" fill="#7ADA45" transform="matrix(1.00, 0.00, -0.00, -1.00, 384.8, 388.8)">r</text><text xml:space="preserve" font-family="Helvetica-Light,Helvetica" font-size="36.0" fill="#7ADA45" transform="matrix(1.00, 0.00, -0.00, -1.00, 396.2, 388.8)">e</text><text xml:space="preserve" font-family="Helvetica-Light,Helvetica" font-size="36.0" fill="#7ADA45" transform="matrix(1.00, 0.00, -0.00, -1.00, 416.2, 388.8)">e</text><text xml:space="preserve" font-family="Helvetica-Light,Helvetica" font-size="36.0" fill="#7ADA45" transform="matrix(1.00, 0.00, -0.00, -1.00, 436.2, 388.8)">t</text><text xml:space="preserve" font-family="Helvetica-Light,Helvetica" font-size="36.0" fill="#7ADA45" transform="matrix(1.00, 0.00, -0.00, -1.00, 446.2, 388.8)">i</text><text xml:space="preserve" font-family="Helvetica-Light,Helvetica" font-size="36.0" fill="#7ADA45" transform="matrix(1.00, 0.00, -0.00, -1.00, 454.2, 388.8)">n</text><text xml:space="preserve" font-family="Helvetica-Light,Helvetica" font-size="36.0" fill="#7ADA45" transform="matrix(1.00, 0.00, -0.00, -1.00, 474.2, 388.8)">g</text><text xml:space="preserve" font-family="Helvetica-Light,Helvetica" font-size="36.0" fill="#7ADA45" transform="matrix(1.00, 0.00, -0.00, -1.00, 496.2, 388.8)">s</text><text xml:space="preserve" font-family="Helvetica-Light,Helvetica" font-size="36.0" fill="#7ADA45" transform="matrix(1.00, 0.00, -0.00, -1.00, 514.2, 388.8)">.</text><text xml:space="preserve" font-family="Helvetica-Light,Helvetica" font-size="36.0" fill="#7ADA45" transform="matrix(1.00, 0.00, -0.00, -1.00, 524.2, 388.8)">.</text><text xml:space="preserve" font-family="Helvetica-Light,Helvetica" font-size="36.0" fill="#7ADA45" transform="matrix(1.00, 0.00, -0.00, -1.00, 534.2, 388.8)">.</text><text xml:space="preserve" font-family="Helvetica-Light,Helvetica" font-size="36.0" fill="#7ADA45" transform="matrix(1.00, 0.00, -0.00, -1.00, 544.2, 388.8)"> </text><text xml:space="preserve" font-family="Helvetica-Light,Helvetica" font-size="36.0" fill="#7ADA45" transform="matrix(1.00, 0.00, -0.00, -1.00, 554.2, 388.8)">'</text><text xml:space="preserve" font-family="Helvetica-Light,Helvetica" font-size="36.0" fill="#7ADA45" transform="matrix(1.00, 0.00, -0.00, -1.00, 562.2, 388.8)"> </text><text xml:space="preserve" font-family="Helvetica-Light,Helvetica" font-size="36.0" fill="#7ADA45" transform="matrix(1.00, 0.00, -0.00, -1.00, 572.2, 388.8)">+</text><text xml:space="preserve" font-family="Helvetica-Light,Helvetica" font-size="36.0" fill="#7ADA45" transform="matrix(1.00, 0.00, -0.00, -1.00, 596.0, 388.8)"> </text><text xml:space="preserve" font-family="Helvetica-Light,Helvetica" font-size="36.0" fill="#7ADA45" transform="matrix(1.00, 0.00, -0.00, -1.00, 606.0, 388.8)">m</text><text xml:space="preserve" font-family="Helvetica-Light,Helvetica" font-size="36.0" fill="#7ADA45" transform="matrix(1.00, 0.00, -0.00, -1.00, 636.0, 388.8)">s</text><text xml:space="preserve" font-family="Helvetica-Light,Helvetica" font-size="36.0" fill="#7ADA45" transform="matrix(1.00, 0.00, -0.00, -1.00, 654.0, 388.8)">g</text><text xml:space="preserve" font-family="Helvetica-Light,Helvetica" font-size="36.0" fill="#7ADA45" transform="matrix(1.00, 0.00, -0.00, -1.00, 676.0, 388.8)">)</text><text xml:space="preserve" font-family="Helvetica-Light,Helvetica" font-size="36.0" fill="#7ADA45" transform="matrix(1.00, 0.00, -0.00, -1.00, 688.0, 388.8)">;</text><text xml:space="preserve" font-family="Helvetica-Light,Helvetica" font-size="36.0" fill="#7ADA45" transform="matrix(1.00, 0.00, -0.00, -1.00, 698.0, 388.8)"> </text><text xml:space="preserve" font-family="Helvetica-Light,Helvetica" font-size="36.0" fill="#7ADA45" transform="matrix(1.00, 0.00, -0.00, -1.00, 158.7, 345.8)"> </text><text xml:space="preserve" font-family="Helvetica-Light,Helvetica" font-size="36.0" fill="#7ADA45" transform="matrix(1.00, 0.00, -0.00, -1.00, 168.7, 345.8)"> </text><text xml:space="preserve" font-family="Helvetica-Light,Helvetica" font-size="36.0" fill="#7ADA45" transform="matrix(1.00, 0.00, -0.00, -1.00, 178.8, 345.8)"> </text><text xml:space="preserve" font-family="Helvetica-Light,Helvetica" font-size="36.0" fill="#7ADA45" transform="matrix(1.00, 0.00, -0.00, -1.00, 188.8, 345.8)"> </text><text xml:space="preserve" font-family="Helvetica-Light,Helvetica" font-size="36.0" fill="#7ADA45" transform="matrix(1.00, 0.00, -0.00, -1.00, 198.8, 345.8)">}</text><text xml:space="preserve" font-family="Helvetica-Light,Helvetica" font-size="36.0" fill="#7ADA45" transform="matrix(1.00, 0.00, -0.00, -1.00, 210.8, 345.8)"> </text><text xml:space="preserve" font-family="Helvetica-Light,Helvetica" font-size="36.0" fill="#7ADA45" transform="matrix(1.00, 0.00, -0.00, -1.00, 158.7, 259.8)"> </text><text xml:space="preserve" font-family="Helvetica-Light,Helvetica" font-size="36.0" fill="#7ADA45" transform="matrix(1.00, 0.00, -0.00, -1.00, 168.7, 259.8)"> </text><text xml:space="preserve" font-family="Helvetica-Light,Helvetica" font-size="36.0" fill="#7ADA45" transform="matrix(1.00, 0.00, -0.00, -1.00, 178.8, 259.8)"> </text><text xml:space="preserve" font-family="Helvetica-Light,Helvetica" font-size="36.0" fill="#7ADA45" transform="matrix(1.00, 0.00, -0.00, -1.00, 188.8, 259.8)"> </text><text xml:space="preserve" font-family="Helvetica-Light,Helvetica" font-size="36.0" fill="#7ADA45" transform="matrix(1.00, 0.00, -0.00, -1.00, 198.8, 259.8)">P</text><text xml:space="preserve" font-family="Helvetica-Light,Helvetica" font-size="36.0" fill="#7ADA45" transform="matrix(1.00, 0.00, -0.00, -1.00, 220.8, 259.8)">e</text><text xml:space="preserve" font-family="Helvetica-Light,Helvetica" font-size="36.0" fill="#7ADA45" transform="matrix(1.00, 0.00, -0.00, -1.00, 240.8, 259.8)">r</text><text xml:space="preserve" font-family="Helvetica-Light,Helvetica" font-size="36.0" fill="#7ADA45" transform="matrix(1.00, 0.00, -0.00, -1.00, 252.8, 259.8)">s</text><text xml:space="preserve" font-family="Helvetica-Light,Helvetica" font-size="36.0" fill="#7ADA45" transform="matrix(1.00, 0.00, -0.00, -1.00, 270.8, 259.8)">o</text><text xml:space="preserve" font-family="Helvetica-Light,Helvetica" font-size="36.0" fill="#7ADA45" transform="matrix(1.00, 0.00, -0.00, -1.00, 290.8, 259.8)">n</text><text xml:space="preserve" font-family="Helvetica-Light,Helvetica" font-size="36.0" fill="#7ADA45" transform="matrix(1.00, 0.00, -0.00, -1.00, 310.8, 259.8)">.</text><text xml:space="preserve" font-family="Helvetica-Light,Helvetica" font-size="36.0" fill="#7ADA45" transform="matrix(1.00, 0.00, -0.00, -1.00, 320.8, 259.8)">r</text><text xml:space="preserve" font-family="Helvetica-Light,Helvetica" font-size="36.0" fill="#7ADA45" transform="matrix(1.00, 0.00, -0.00, -1.00, 332.1, 259.8)">e</text><text xml:space="preserve" font-family="Helvetica-Light,Helvetica" font-size="36.0" fill="#7ADA45" transform="matrix(1.00, 0.00, -0.00, -1.00, 352.2, 259.8)">m</text><text xml:space="preserve" font-family="Helvetica-Light,Helvetica" font-size="36.0" fill="#7ADA45" transform="matrix(1.00, 0.00, -0.00, -1.00, 382.2, 259.8)">o</text><text xml:space="preserve" font-family="Helvetica-Light,Helvetica" font-size="36.0" fill="#7ADA45" transform="matrix(1.00, 0.00, -0.00, -1.00, 402.2, 259.8)">t</text><text xml:space="preserve" font-family="Helvetica-Light,Helvetica" font-size="36.0" fill="#7ADA45" transform="matrix(1.00, 0.00, -0.00, -1.00, 412.2, 259.8)">e</text><text xml:space="preserve" font-family="Helvetica-Light,Helvetica" font-size="36.0" fill="#7ADA45" transform="matrix(1.00, 0.00, -0.00, -1.00, 432.2, 259.8)">M</text><text xml:space="preserve" font-family="Helvetica-Light,Helvetica" font-size="36.0" fill="#7ADA45" transform="matrix(1.00, 0.00, -0.00, -1.00, 462.2, 259.8)">e</text><text xml:space="preserve" font-family="Helvetica-Light,Helvetica" font-size="36.0" fill="#7ADA45" transform="matrix(1.00, 0.00, -0.00, -1.00, 482.2, 259.8)">t</text><text xml:space="preserve" font-family="Helvetica-Light,Helvetica" font-size="36.0" fill="#7ADA45" transform="matrix(1.00, 0.00, -0.00, -1.00, 492.2, 259.8)">h</text><text xml:space="preserve" font-family="Helvetica-Light,Helvetica" font-size="36.0" fill="#7ADA45" transform="matrix(1.00, 0.00, -0.00, -1.00, 512.2, 259.8)">o</text><text xml:space="preserve" font-family="Helvetica-Light,Helvetica" font-size="36.0" fill="#7ADA45" transform="matrix(1.00, 0.00, -0.00, -1.00, 532.2, 259.8)">d</text><text xml:space="preserve" font-family="Helvetica-Light,Helvetica" font-size="36.0" fill="#7ADA45" transform="matrix(1.00, 0.00, -0.00, -1.00, 554.2, 259.8)">(</text><text xml:space="preserve" font-family="Helvetica-Light,Helvetica" font-size="36.0" fill="#7ADA45" transform="matrix(1.00, 0.00, -0.00, -1.00, 566.2, 259.8)">'</text><text xml:space="preserve" font-family="Helvetica-Light,Helvetica" font-size="36.0" fill="#7ADA45" transform="matrix(1.00, 0.00, -0.00, -1.00, 574.2, 259.8)">g</text><text xml:space="preserve" font-family="Helvetica-Light,Helvetica" font-size="36.0" fill="#7ADA45" transform="matrix(1.00, 0.00, -0.00, -1.00, 596.2, 259.8)">r</text><text xml:space="preserve" font-family="Helvetica-Light,Helvetica" font-size="36.0" fill="#7ADA45" transform="matrix(1.00, 0.00, -0.00, -1.00, 607.5, 259.8)">e</text><text xml:space="preserve" font-family="Helvetica-Light,Helvetica" font-size="36.0" fill="#7ADA45" transform="matrix(1.00, 0.00, -0.00, -1.00, 627.6, 259.8)">e</text><text xml:space="preserve" font-family="Helvetica-Light,Helvetica" font-size="36.0" fill="#7ADA45" transform="matrix(1.00, 0.00, -0.00, -1.00, 647.6, 259.8)">t</text><text xml:space="preserve" font-family="Helvetica-Light,Helvetica" font-size="36.0" fill="#7ADA45" transform="matrix(1.00, 0.00, -0.00, -1.00, 657.6, 259.8)">'</text><text xml:space="preserve" font-family="Helvetica-Light,Helvetica" font-size="36.0" fill="#7ADA45" transform="matrix(1.00, 0.00, -0.00, -1.00, 665.6, 259.8)">,</text><text xml:space="preserve" font-family="Helvetica-Light,Helvetica" font-size="36.0" fill="#7ADA45" transform="matrix(1.00, 0.00, -0.00, -1.00, 675.6, 259.8)"> </text><text xml:space="preserve" font-family="Helvetica-Light,Helvetica" font-size="36.0" fill="#7ADA45" transform="matrix(1.00, 0.00, -0.00, -1.00, 685.6, 259.8)">{</text><text xml:space="preserve" font-family="Helvetica-Light,Helvetica" font-size="36.0" fill="#7ADA45" transform="matrix(1.00, 0.00, -0.00, -1.00, 697.6, 259.8)"> </text><text xml:space="preserve" font-family="Helvetica-Light,Helvetica" font-size="36.0" fill="#7ADA45" transform="matrix(1.00, 0.00, -0.00, -1.00, 158.7, 216.8)"> </text><text xml:space="preserve" font-family="Helvetica-Light,Helvetica" font-size="36.0" fill="#7ADA45" transform="matrix(1.00, 0.00, -0.00, -1.00, 168.7, 216.8)"> </text><text xml:space="preserve" font-family="Helvetica-Light,Helvetica" font-size="36.0" fill="#7ADA45" transform="matrix(1.00, 0.00, -0.00, -1.00, 178.8, 216.8)"> </text><text xml:space="preserve" font-family="Helvetica-Light,Helvetica" font-size="36.0" fill="#7ADA45" transform="matrix(1.00, 0.00, -0.00, -1.00, 188.8, 216.8)"> </text><text xml:space="preserve" font-family="Helvetica-Light,Helvetica" font-size="36.0" fill="#7ADA45" transform="matrix(1.00, 0.00, -0.00, -1.00, 198.8, 216.8)"> </text><text xml:space="preserve" font-family="Helvetica-Light,Helvetica" font-size="36.0" fill="#7ADA45" transform="matrix(1.00, 0.00, -0.00, -1.00, 208.8, 216.8)"> </text><text xml:space="preserve" font-family="Helvetica-Light,Helvetica" font-size="36.0" fill="#7ADA45" transform="matrix(1.00, 0.00, -0.00, -1.00, 218.8, 216.8)"> </text><text xml:space="preserve" font-family="Helvetica-Light,Helvetica" font-size="36.0" fill="#7ADA45" transform="matrix(1.00, 0.00, -0.00, -1.00, 228.8, 216.8)"> </text><text xml:space="preserve" font-family="Helvetica-Light,Helvetica" font-size="36.0" fill="#7ADA45" transform="matrix(1.00, 0.00, -0.00, -1.00, 238.8, 216.8)"> </text><text xml:space="preserve" font-family="Helvetica-Light,Helvetica" font-size="36.0" fill="#7ADA45" transform="matrix(1.00, 0.00, -0.00, -1.00, 248.8, 216.8)"> </text><text xml:space="preserve" font-family="Helvetica-Light,Helvetica" font-size="36.0" fill="#7ADA45" transform="matrix(1.00, 0.00, -0.00, -1.00, 258.8, 216.8)">a</text><text xml:space="preserve" font-family="Helvetica-Light,Helvetica" font-size="36.0" fill="#7ADA45" transform="matrix(1.00, 0.00, -0.00, -1.00, 278.8, 216.8)">c</text><text xml:space="preserve" font-family="Helvetica-Light,Helvetica" font-size="36.0" fill="#7ADA45" transform="matrix(1.00, 0.00, -0.00, -1.00, 298.8, 216.8)">c</text><text xml:space="preserve" font-family="Helvetica-Light,Helvetica" font-size="36.0" fill="#7ADA45" transform="matrix(1.00, 0.00, -0.00, -1.00, 318.9, 216.8)">e</text><text xml:space="preserve" font-family="Helvetica-Light,Helvetica" font-size="36.0" fill="#7ADA45" transform="matrix(1.00, 0.00, -0.00, -1.00, 338.9, 216.8)">p</text><text xml:space="preserve" font-family="Helvetica-Light,Helvetica" font-size="36.0" fill="#7ADA45" transform="matrix(1.00, 0.00, -0.00, -1.00, 360.9, 216.8)">t</text><text xml:space="preserve" font-family="Helvetica-Light,Helvetica" font-size="36.0" fill="#7ADA45" transform="matrix(1.00, 0.00, -0.00, -1.00, 370.9, 216.8)">s</text><text xml:space="preserve" font-family="Helvetica-Light,Helvetica" font-size="36.0" fill="#7ADA45" transform="matrix(1.00, 0.00, -0.00, -1.00, 388.9, 216.8)">:</text><text xml:space="preserve" font-family="Helvetica-Light,Helvetica" font-size="36.0" fill="#7ADA45" transform="matrix(1.00, 0.00, -0.00, -1.00, 398.9, 216.8)"> </text><text xml:space="preserve" font-family="Helvetica-Light,Helvetica" font-size="36.0" fill="#7ADA45" transform="matrix(1.00, 0.00, -0.00, -1.00, 408.9, 216.8)">{</text><text xml:space="preserve" font-family="Helvetica-Light,Helvetica" font-size="36.0" fill="#7ADA45" transform="matrix(1.00, 0.00, -0.00, -1.00, 420.9, 216.8)">a</text><text xml:space="preserve" font-family="Helvetica-Light,Helvetica" font-size="36.0" fill="#7ADA45" transform="matrix(1.00, 0.00, -0.00, -1.00, 440.9, 216.8)">r</text><text xml:space="preserve" font-family="Helvetica-Light,Helvetica" font-size="36.0" fill="#7ADA45" transform="matrix(1.00, 0.00, -0.00, -1.00, 452.9, 216.8)">g</text><text xml:space="preserve" font-family="Helvetica-Light,Helvetica" font-size="36.0" fill="#7ADA45" transform="matrix(1.00, 0.00, -0.00, -1.00, 474.9, 216.8)">:</text><text xml:space="preserve" font-family="Helvetica-Light,Helvetica" font-size="36.0" fill="#7ADA45" transform="matrix(1.00, 0.00, -0.00, -1.00, 484.9, 216.8)"> </text><text xml:space="preserve" font-family="Helvetica-Light,Helvetica" font-size="36.0" fill="#7ADA45" transform="matrix(1.00, 0.00, -0.00, -1.00, 494.9, 216.8)">'</text><text xml:space="preserve" font-family="Helvetica-Light,Helvetica" font-size="36.0" fill="#7ADA45" transform="matrix(1.00, 0.00, -0.00, -1.00, 502.9, 216.8)">m</text><text xml:space="preserve" font-family="Helvetica-Light,Helvetica" font-size="36.0" fill="#7ADA45" transform="matrix(1.00, 0.00, -0.00, -1.00, 532.9, 216.8)">s</text><text xml:space="preserve" font-family="Helvetica-Light,Helvetica" font-size="36.0" fill="#7ADA45" transform="matrix(1.00, 0.00, -0.00, -1.00, 550.9, 216.8)">g</text><text xml:space="preserve" font-family="Helvetica-Light,Helvetica" font-size="36.0" fill="#7ADA45" transform="matrix(1.00, 0.00, -0.00, -1.00, 572.9, 216.8)">'</text><text xml:space="preserve" font-family="Helvetica-Light,Helvetica" font-size="36.0" fill="#7ADA45" transform="matrix(1.00, 0.00, -0.00, -1.00, 580.9, 216.8)">,</text><text xml:space="preserve" font-family="Helvetica-Light,Helvetica" font-size="36.0" fill="#7ADA45" transform="matrix(1.00, 0.00, -0.00, -1.00, 590.9, 216.8)"> </text><text xml:space="preserve" font-family="Helvetica-Light,Helvetica" font-size="36.0" fill="#7ADA45" transform="matrix(1.00, 0.00, -0.00, -1.00, 600.9, 216.8)">t</text><text xml:space="preserve" font-family="Helvetica-Light,Helvetica" font-size="36.0" fill="#7ADA45" transform="matrix(1.00, 0.00, -0.00, -1.00, 610.9, 216.8)">y</text><text xml:space="preserve" font-family="Helvetica-Light,Helvetica" font-size="36.0" fill="#7ADA45" transform="matrix(1.00, 0.00, -0.00, -1.00, 628.9, 216.8)">p</text><text xml:space="preserve" font-family="Helvetica-Light,Helvetica" font-size="36.0" fill="#7ADA45" transform="matrix(1.00, 0.00, -0.00, -1.00, 650.9, 216.8)">e</text><text xml:space="preserve" font-family="Helvetica-Light,Helvetica" font-size="36.0" fill="#7ADA45" transform="matrix(1.00, 0.00, -0.00, -1.00, 670.9, 216.8)">:</text><text xml:space="preserve" font-family="Helvetica-Light,Helvetica" font-size="36.0" fill="#7ADA45" transform="matrix(1.00, 0.00, -0.00, -1.00, 680.9, 216.8)"> </text><text xml:space="preserve" font-family="Helvetica-Light,Helvetica" font-size="36.0" fill="#7ADA45" transform="matrix(1.00, 0.00, -0.00, -1.00, 690.9, 216.8)">'</text><text xml:space="preserve" font-family="Helvetica-Light,Helvetica" font-size="36.0" fill="#7ADA45" transform="matrix(1.00, 0.00, -0.00, -1.00, 698.9, 216.8)">s</text><text xml:space="preserve" font-family="Helvetica-Light,Helvetica" font-size="36.0" fill="#7ADA45" transform="matrix(1.00, 0.00, -0.00, -1.00, 716.9, 216.8)">t</text><text xml:space="preserve" font-family="Helvetica-Light,Helvetica" font-size="36.0" fill="#7ADA45" transform="matrix(1.00, 0.00, -0.00, -1.00, 726.9, 216.8)">r</text><text xml:space="preserve" font-family="Helvetica-Light,Helvetica" font-size="36.0" fill="#7ADA45" transform="matrix(1.00, 0.00, -0.00, -1.00, 738.9, 216.8)">i</text><text xml:space="preserve" font-family="Helvetica-Light,Helvetica" font-size="36.0" fill="#7ADA45" transform="matrix(1.00, 0.00, -0.00, -1.00, 746.9, 216.8)">n</text><text xml:space="preserve" font-family="Helvetica-Light,Helvetica" font-size="36.0" fill="#7ADA45" transform="matrix(1.00, 0.00, -0.00, -1.00, 766.9, 216.8)">g</text><text xml:space="preserve" font-family="Helvetica-Light,Helvetica" font-size="36.0" fill="#7ADA45" transform="matrix(1.00, 0.00, -0.00, -1.00, 788.9, 216.8)">'</text><text xml:space="preserve" font-family="Helvetica-Light,Helvetica" font-size="36.0" fill="#7ADA45" transform="matrix(1.00, 0.00, -0.00, -1.00, 796.9, 216.8)">}</text><text xml:space="preserve" font-family="Helvetica-Light,Helvetica" font-size="36.0" fill="#7ADA45" transform="matrix(1.00, 0.00, -0.00, -1.00, 808.9, 216.8)">,</text><text xml:space="preserve" font-family="Helvetica-Light,Helvetica" font-size="36.0" fill="#7ADA45" transform="matrix(1.00, 0.00, -0.00, -1.00, 818.9, 216.8)"> </text><text xml:space="preserve" font-family="Helvetica-Light,Helvetica" font-size="36.0" fill="#7ADA45" transform="matrix(1.00, 0.00, -0.00, -1.00, 158.7, 173.8)"> </text><text xml:space="preserve" font-family="Helvetica-Light,Helvetica" font-size="36.0" fill="#7ADA45" transform="matrix(1.00, 0.00, -0.00, -1.00, 168.7, 173.8)"> </text><text xml:space="preserve" font-family="Helvetica-Light,Helvetica" font-size="36.0" fill="#7ADA45" transform="matrix(1.00, 0.00, -0.00, -1.00, 178.8, 173.8)"> </text><text xml:space="preserve" font-family="Helvetica-Light,Helvetica" font-size="36.0" fill="#7ADA45" transform="matrix(1.00, 0.00, -0.00, -1.00, 188.8, 173.8)"> </text><text xml:space="preserve" font-family="Helvetica-Light,Helvetica" font-size="36.0" fill="#7ADA45" transform="matrix(1.00, 0.00, -0.00, -1.00, 198.8, 173.8)"> </text><text xml:space="preserve" font-family="Helvetica-Light,Helvetica" font-size="36.0" fill="#7ADA45" transform="matrix(1.00, 0.00, -0.00, -1.00, 208.8, 173.8)"> </text><text xml:space="preserve" font-family="Helvetica-Light,Helvetica" font-size="36.0" fill="#7ADA45" transform="matrix(1.00, 0.00, -0.00, -1.00, 218.8, 173.8)"> </text><text xml:space="preserve" font-family="Helvetica-Light,Helvetica" font-size="36.0" fill="#7ADA45" transform="matrix(1.00, 0.00, -0.00, -1.00, 228.8, 173.8)"> </text><text xml:space="preserve" font-family="Helvetica-Light,Helvetica" font-size="36.0" fill="#7ADA45" transform="matrix(1.00, 0.00, -0.00, -1.00, 238.8, 173.8)"> </text><text xml:space="preserve" font-family="Helvetica-Light,Helvetica" font-size="36.0" fill="#7ADA45" transform="matrix(1.00, 0.00, -0.00, -1.00, 248.8, 173.8)"> </text><text xml:space="preserve" font-family="Helvetica-Light,Helvetica" font-size="36.0" fill="#7ADA45" transform="matrix(1.00, 0.00, -0.00, -1.00, 258.8, 173.8)">r</text><text xml:space="preserve" font-family="Helvetica-Light,Helvetica" font-size="36.0" fill="#7ADA45" transform="matrix(1.00, 0.00, -0.00, -1.00, 270.2, 173.8)">e</text><text xml:space="preserve" font-family="Helvetica-Light,Helvetica" font-size="36.0" fill="#7ADA45" transform="matrix(1.00, 0.00, -0.00, -1.00, 290.2, 173.8)">t</text><text xml:space="preserve" font-family="Helvetica-Light,Helvetica" font-size="36.0" fill="#7ADA45" transform="matrix(1.00, 0.00, -0.00, -1.00, 300.2, 173.8)">u</text><text xml:space="preserve" font-family="Helvetica-Light,Helvetica" font-size="36.0" fill="#7ADA45" transform="matrix(1.00, 0.00, -0.00, -1.00, 320.2, 173.8)">r</text><text xml:space="preserve" font-family="Helvetica-Light,Helvetica" font-size="36.0" fill="#7ADA45" transform="matrix(1.00, 0.00, -0.00, -1.00, 332.8, 173.8)">n</text><text xml:space="preserve" font-family="Helvetica-Light,Helvetica" font-size="36.0" fill="#7ADA45" transform="matrix(1.00, 0.00, -0.00, -1.00, 352.8, 173.8)">s</text><text xml:space="preserve" font-family="Helvetica-Light,Helvetica" font-size="36.0" fill="#7ADA45" transform="matrix(1.00, 0.00, -0.00, -1.00, 370.8, 173.8)">:</text><text xml:space="preserve" font-family="Helvetica-Light,Helvetica" font-size="36.0" fill="#7ADA45" transform="matrix(1.00, 0.00, -0.00, -1.00, 380.9, 173.8)"> </text><text xml:space="preserve" font-family="Helvetica-Light,Helvetica" font-size="36.0" fill="#7ADA45" transform="matrix(1.00, 0.00, -0.00, -1.00, 390.9, 173.8)">{</text><text xml:space="preserve" font-family="Helvetica-Light,Helvetica" font-size="36.0" fill="#7ADA45" transform="matrix(1.00, 0.00, -0.00, -1.00, 402.9, 173.8)">a</text><text xml:space="preserve" font-family="Helvetica-Light,Helvetica" font-size="36.0" fill="#7ADA45" transform="matrix(1.00, 0.00, -0.00, -1.00, 422.9, 173.8)">r</text><text xml:space="preserve" font-family="Helvetica-Light,Helvetica" font-size="36.0" fill="#7ADA45" transform="matrix(1.00, 0.00, -0.00, -1.00, 434.9, 173.8)">g</text><text xml:space="preserve" font-family="Helvetica-Light,Helvetica" font-size="36.0" fill="#7ADA45" transform="matrix(1.00, 0.00, -0.00, -1.00, 456.9, 173.8)">:</text><text xml:space="preserve" font-family="Helvetica-Light,Helvetica" font-size="36.0" fill="#7ADA45" transform="matrix(1.00, 0.00, -0.00, -1.00, 466.9, 173.8)"> </text><text xml:space="preserve" font-family="Helvetica-Light,Helvetica" font-size="36.0" fill="#7ADA45" transform="matrix(1.00, 0.00, -0.00, -1.00, 476.9, 173.8)">'</text><text xml:space="preserve" font-family="Helvetica-Light,Helvetica" font-size="36.0" fill="#7ADA45" transform="matrix(1.00, 0.00, -0.00, -1.00, 484.9, 173.8)">g</text><text xml:space="preserve" font-family="Helvetica-Light,Helvetica" font-size="36.0" fill="#7ADA45" transform="matrix(1.00, 0.00, -0.00, -1.00, 506.9, 173.8)">r</text><text xml:space="preserve" font-family="Helvetica-Light,Helvetica" font-size="36.0" fill="#7ADA45" transform="matrix(1.00, 0.00, -0.00, -1.00, 518.2, 173.8)">e</text><text xml:space="preserve" font-family="Helvetica-Light,Helvetica" font-size="36.0" fill="#7ADA45" transform="matrix(1.00, 0.00, -0.00, -1.00, 538.2, 173.8)">e</text><text xml:space="preserve" font-family="Helvetica-Light,Helvetica" font-size="36.0" fill="#7ADA45" transform="matrix(1.00, 0.00, -0.00, -1.00, 558.2, 173.8)">t</text><text xml:space="preserve" font-family="Helvetica-Light,Helvetica" font-size="36.0" fill="#7ADA45" transform="matrix(1.00, 0.00, -0.00, -1.00, 568.2, 173.8)">i</text><text xml:space="preserve" font-family="Helvetica-Light,Helvetica" font-size="36.0" fill="#7ADA45" transform="matrix(1.00, 0.00, -0.00, -1.00, 576.2, 173.8)">n</text><text xml:space="preserve" font-family="Helvetica-Light,Helvetica" font-size="36.0" fill="#7ADA45" transform="matrix(1.00, 0.00, -0.00, -1.00, 596.2, 173.8)">g</text><text xml:space="preserve" font-family="Helvetica-Light,Helvetica" font-size="36.0" fill="#7ADA45" transform="matrix(1.00, 0.00, -0.00, -1.00, 618.2, 173.8)">'</text><text xml:space="preserve" font-family="Helvetica-Light,Helvetica" font-size="36.0" fill="#7ADA45" transform="matrix(1.00, 0.00, -0.00, -1.00, 626.2, 173.8)">,</text><text xml:space="preserve" font-family="Helvetica-Light,Helvetica" font-size="36.0" fill="#7ADA45" transform="matrix(1.00, 0.00, -0.00, -1.00, 636.2, 173.8)"> </text><text xml:space="preserve" font-family="Helvetica-Light,Helvetica" font-size="36.0" fill="#7ADA45" transform="matrix(1.00, 0.00, -0.00, -1.00, 646.2, 173.8)">t</text><text xml:space="preserve" font-family="Helvetica-Light,Helvetica" font-size="36.0" fill="#7ADA45" transform="matrix(1.00, 0.00, -0.00, -1.00, 656.3, 173.8)">y</text><text xml:space="preserve" font-family="Helvetica-Light,Helvetica" font-size="36.0" fill="#7ADA45" transform="matrix(1.00, 0.00, -0.00, -1.00, 674.3, 173.8)">p</text><text xml:space="preserve" font-family="Helvetica-Light,Helvetica" font-size="36.0" fill="#7ADA45" transform="matrix(1.00, 0.00, -0.00, -1.00, 696.3, 173.8)">e</text><text xml:space="preserve" font-family="Helvetica-Light,Helvetica" font-size="36.0" fill="#7ADA45" transform="matrix(1.00, 0.00, -0.00, -1.00, 716.3, 173.8)">:</text><text xml:space="preserve" font-family="Helvetica-Light,Helvetica" font-size="36.0" fill="#7ADA45" transform="matrix(1.00, 0.00, -0.00, -1.00, 726.3, 173.8)"> </text><text xml:space="preserve" font-family="Helvetica-Light,Helvetica" font-size="36.0" fill="#7ADA45" transform="matrix(1.00, 0.00, -0.00, -1.00, 736.3, 173.8)">'</text><text xml:space="preserve" font-family="Helvetica-Light,Helvetica" font-size="36.0" fill="#7ADA45" transform="matrix(1.00, 0.00, -0.00, -1.00, 744.3, 173.8)">s</text><text xml:space="preserve" font-family="Helvetica-Light,Helvetica" font-size="36.0" fill="#7ADA45" transform="matrix(1.00, 0.00, -0.00, -1.00, 762.3, 173.8)">t</text><text xml:space="preserve" font-family="Helvetica-Light,Helvetica" font-size="36.0" fill="#7ADA45" transform="matrix(1.00, 0.00, -0.00, -1.00, 772.3, 173.8)">r</text><text xml:space="preserve" font-family="Helvetica-Light,Helvetica" font-size="36.0" fill="#7ADA45" transform="matrix(1.00, 0.00, -0.00, -1.00, 784.3, 173.8)">i</text><text xml:space="preserve" font-family="Helvetica-Light,Helvetica" font-size="36.0" fill="#7ADA45" transform="matrix(1.00, 0.00, -0.00, -1.00, 792.3, 173.8)">n</text><text xml:space="preserve" font-family="Helvetica-Light,Helvetica" font-size="36.0" fill="#7ADA45" transform="matrix(1.00, 0.00, -0.00, -1.00, 812.3, 173.8)">g</text><text xml:space="preserve" font-family="Helvetica-Light,Helvetica" font-size="36.0" fill="#7ADA45" transform="matrix(1.00, 0.00, -0.00, -1.00, 834.3, 173.8)">'</text><text xml:space="preserve" font-family="Helvetica-Light,Helvetica" font-size="36.0" fill="#7ADA45" transform="matrix(1.00, 0.00, -0.00, -1.00, 842.3, 173.8)">}</text><text xml:space="preserve" font-family="Helvetica-Light,Helvetica" font-size="36.0" fill="#7ADA45" transform="matrix(1.00, 0.00, -0.00, -1.00, 854.3, 173.8)"> </text><text xml:space="preserve" font-family="Helvetica-Light,Helvetica" font-size="36.0" fill="#7ADA45" transform="matrix(1.00, 0.00, -0.00, -1.00, 158.7, 130.8)"> </text><text xml:space="preserve" font-family="Helvetica-Light,Helvetica" font-size="36.0" fill="#7ADA45" transform="matrix(1.00, 0.00, -0.00, -1.00, 168.7, 130.8)"> </text><text xml:space="preserve" font-family="Helvetica-Light,Helvetica" font-size="36.0" fill="#7ADA45" transform="matrix(1.00, 0.00, -0.00, -1.00, 178.8, 130.8)"> </text><text xml:space="preserve" font-family="Helvetica-Light,Helvetica" font-size="36.0" fill="#7ADA45" transform="matrix(1.00, 0.00, -0.00, -1.00, 188.8, 130.8)"> </text><text xml:space="preserve" font-family="Helvetica-Light,Helvetica" font-size="36.0" fill="#7ADA45" transform="matrix(1.00, 0.00, -0.00, -1.00, 198.8, 130.8)">}</text><text xml:space="preserve" font-family="Helvetica-Light,Helvetica" font-size="36.0" fill="#7ADA45" transform="matrix(1.00, 0.00, -0.00, -1.00, 210.8, 130.8)">)</text><text xml:space="preserve" font-family="Helvetica-Light,Helvetica" font-size="36.0" fill="#7ADA45" transform="matrix(1.00, 0.00, -0.00, -1.00, 222.7, 130.8)">;</text><text xml:space="preserve" font-family="Helvetica-Light,Helvetica" font-size="36.0" fill="#7ADA45" transform="matrix(1.00, 0.00, -0.00, -1.00, 232.8, 130.8)"> </text><text xml:space="preserve" font-family="Helvetica-Light,Helvetica" font-size="36.0" fill="#7ADA45" transform="matrix(1.00, 0.00, -0.00, -1.00, 158.7, 87.8)">}</text><text xml:space="preserve" font-family="Helvetica-Light,Helvetica" font-size="36.0" fill="#7ADA45" transform="matrix(1.00, 0.00, -0.00, -1.00, 170.7, 87.8)">;</text></g></svg>