<?xml version="1.0" encoding="UTF-8"?><svg xmlns="http://www.w3.org/2000/svg" xmlns:xlink="http://www.w3.org/1999/xlink" clip-rule="evenodd" stroke-miterlimit="10" viewBox="0 0 1024 768"><desc>SVG generated by Keynote</desc><defs></defs><g transform="matrix(1.00, 0.00, -0.00, -1.00, 0.0, 768.0)"><path d="M 0.0 0.0 L 1024.0 0.0 L 1024.0 768.0 L 0.0 768.0 Z M 0.0 0.0 " fill="#000000"></path><text xml:space="preserve" font-family="Helvetica-Light,Helvetica" font-size="80.0" fill="#FEFFFF" transform="matrix(1.00, 0.00, -0.00, -1.00, 86.9, 633.4)">Ч</text><text xml:space="preserve" font-family="Helvetica-Light,Helvetica" font-size="80.0" fill="#FEFFFF" transform="matrix(1.00, 0.00, -0.00, -1.00, 137.3, 633.4)">е</text><text xml:space="preserve" font-family="Helvetica-Light,Helvetica" font-size="80.0" fill="#FEFFFF" transform="matrix(1.00, 0.00, -0.00, -1.00, 178.8, 633.4)">м</text><text xml:space="preserve" font-family="Helvetica-Light,Helvetica" font-size="80.0" fill="#FEFFFF" transform="matrix(1.00, 0.00, -0.00, -1.00, 232.2, 633.4)"> </text><text xml:space="preserve" font-family="Helvetica-Light,Helvetica" font-size="80.0" fill="#FEFFFF" transform="matrix(1.00, 0.00, -0.00, -1.00, 254.5, 633.4)">э</text><text xml:space="preserve" font-family="Helvetica-Light,Helvetica" font-size="80.0" fill="#FEFFFF" transform="matrix(1.00, 0.00, -0.00, -1.00, 296.0, 633.4)">т</text><text xml:space="preserve" font-family="Helvetica-Light,Helvetica" font-size="80.0" fill="#FEFFFF" transform="matrix(1.00, 0.00, -0.00, -1.00, 331.4, 633.4)">о</text><text xml:space="preserve" font-family="Helvetica-Light,Helvetica" font-size="80.0" fill="#FEFFFF" transform="matrix(1.00, 0.00, -0.00, -1.00, 375.9, 633.4)"> </text><text xml:space="preserve" font-family="Helvetica-Light,Helvetica" font-size="80.0" fill="#FEFFFF" transform="matrix(1.00, 0.00, -0.00, -1.00, 398.2, 633.4)">л</text><text xml:space="preserve" font-family="Helvetica-Light,Helvetica" font-size="80.0" fill="#FEFFFF" transform="matrix(1.00, 0.00, -0.00, -1.00, 443.4, 633.4)">у</text><text xml:space="preserve" font-family="Helvetica-Light,Helvetica" font-size="80.0" fill="#FEFFFF" transform="matrix(1.00, 0.00, -0.00, -1.00, 480.4, 633.4)">ч</text><text xml:space="preserve" font-family="Helvetica-Light,Helvetica" font-size="80.0" fill="#FEFFFF" transform="matrix(1.00, 0.00, -0.00, -1.00, 520.2, 633.4)">ш</text><text xml:space="preserve" font-family="Helvetica-Light,Helvetica" font-size="80.0" fill="#FEFFFF" transform="matrix(1.00, 0.00, -0.00, -1.00, 582.9, 633.4)">е</text><text xml:space="preserve" font-family="Helvetica-Light,Helvetica" font-size="80.0" fill="#FEFFFF" transform="matrix(1.00, 0.00, -0.00, -1.00, 624.4, 633.4)">м</text><text xml:space="preserve" font-family="Helvetica-Light,Helvetica" font-size="80.0" fill="#FEFFFF" transform="matrix(1.00, 0.00, -0.00, -1.00, 677.8, 633.4)"> </text><text xml:space="preserve" font-family="Helvetica-Light,Helvetica" font-size="80.0" fill="#FEFFFF" transform="matrix(1.00, 0.00, -0.00, -1.00, 700.1, 633.4)">ч</text><text xml:space="preserve" font-family="Helvetica-Light,Helvetica" font-size="80.0" fill="#FEFFFF" transform="matrix(1.00, 0.00, -0.00, -1.00, 739.9, 633.4)">е</text><text xml:space="preserve" font-family="Helvetica-Light,Helvetica" font-size="80.0" fill="#FEFFFF" transform="matrix(1.00, 0.00, -0.00, -1.00, 781.4, 633.4)">м</text><text xml:space="preserve" font-family="Helvetica-Light,Helvetica" font-size="80.0" fill="#FEFFFF" transform="matrix(1.00, 0.00, -0.00, -1.00, 834.9, 633.4)"> </text><text xml:space="preserve" font-family="Helvetica-Light,Helvetica" font-size="80.0" fill="#FEFFFF" transform="matrix(1.00, 0.00, -0.00, -1.00, 857.1, 633.4)">…</text><text xml:space="preserve" font-family="Helvetica-Light,Helvetica" font-size="28.5" fill="#1497FC" transform="matrix(1.00, 0.00, -0.00, -1.00, 79.0, 56.5)">•</text><text xml:space="preserve" font-family="Helvetica-Light,Helvetica" font-size="38.0" fill="#FEFFFE" transform="matrix(1.00, 0.00, -0.00, -1.00, 114.0, 53.2)">О</text><text xml:space="preserve" font-family="Helvetica-Light,Helvetica" font-size="38.0" fill="#FEFFFE" transform="matrix(1.00, 0.00, -0.00, -1.00, 142.2, 53.2)">т</text><text xml:space="preserve" font-family="Helvetica-Light,Helvetica" font-size="38.0" fill="#FEFFFE" transform="matrix(1.00, 0.00, -0.00, -1.00, 159.0, 53.2)">к</text><text xml:space="preserve" font-family="Helvetica-Light,Helvetica" font-size="38.0" fill="#FEFFFE" transform="matrix(1.00, 0.00, -0.00, -1.00, 177.9, 53.2)">р</text><text xml:space="preserve" font-family="Helvetica-Light,Helvetica" font-size="38.0" fill="#FEFFFE" transform="matrix(1.00, 0.00, -0.00, -1.00, 199.7, 53.2)">о</text><text xml:space="preserve" font-family="Helvetica-Light,Helvetica" font-size="38.0" fill="#FEFFFE" transform="matrix(1.00, 0.00, -0.00, -1.00, 220.9, 53.2)">й</text><text xml:space="preserve" font-family="Helvetica-Light,Helvetica" font-size="38.0" fill="#FEFFFE" transform="matrix(1.00, 0.00, -0.00, -1.00, 241.5, 53.2)"> </text><text xml:space="preserve" font-family="Helvetica-Light,Helvetica" font-size="38.0" fill="#FEFFFE" transform="matrix(1.00, 0.00, -0.00, -1.00, 252.1, 53.2)">с</text><text xml:space="preserve" font-family="Helvetica-Light,Helvetica" font-size="38.0" fill="#FEFFFE" transform="matrix(1.00, 0.00, -0.00, -1.00, 271.8, 53.2)">с</text><text xml:space="preserve" font-family="Helvetica-Light,Helvetica" font-size="38.0" fill="#FEFFFE" transform="matrix(1.00, 0.00, -0.00, -1.00, 291.5, 53.2)">ы</text><text xml:space="preserve" font-family="Helvetica-Light,Helvetica" font-size="38.0" fill="#FEFFFE" transform="matrix(1.00, 0.00, -0.00, -1.00, 317.0, 53.2)">л</text><text xml:space="preserve" font-family="Helvetica-Light,Helvetica" font-size="38.0" fill="#FEFFFE" transform="matrix(1.00, 0.00, -0.00, -1.00, 338.5, 53.2)">к</text><text xml:space="preserve" font-family="Helvetica-Light,Helvetica" font-size="38.0" fill="#FEFFFE" transform="matrix(1.00, 0.00, -0.00, -1.00, 357.4, 53.2)">у</text><text xml:space="preserve" font-family="Helvetica-Light,Helvetica" font-size="38.0" fill="#1497FC" transform="matrix(1.00, 0.00, -0.00, -1.00, 375.0, 53.2)"> </text><text xml:space="preserve" font-family="Helvetica-Light,Helvetica" font-size="38.0" fill="#1497FC" transform="matrix(1.00, 0.00, -0.00, -1.00, 385.6, 53.2)">h</text><text xml:space="preserve" font-family="Helvetica-Light,Helvetica" font-size="38.0" fill="#1497FC" transform="matrix(1.00, 0.00, -0.00, -1.00, 406.7, 53.2)">t</text><text xml:space="preserve" font-family="Helvetica-Light,Helvetica" font-size="38.0" fill="#1497FC" transform="matrix(1.00, 0.00, -0.00, -1.00, 417.3, 53.2)">t</text><text xml:space="preserve" font-family="Helvetica-Light,Helvetica" font-size="38.0" fill="#1497FC" transform="matrix(1.00, 0.00, -0.00, -1.00, 427.8, 53.2)">p</text><text xml:space="preserve" font-family="Helvetica-Light,Helvetica" font-size="38.0" fill="#1497FC" transform="matrix(1.00, 0.00, -0.00, -1.00, 451.1, 53.2)">:</text><text xml:space="preserve" font-family="Helvetica-Light,Helvetica" font-size="38.0" fill="#1497FC" transform="matrix(1.00, 0.00, -0.00, -1.00, 461.6, 53.2)">/</text><text xml:space="preserve" font-family="Helvetica-Light,Helvetica" font-size="38.0" fill="#1497FC" transform="matrix(1.00, 0.00, -0.00, -1.00, 472.2, 53.2)">/</text><text xml:space="preserve" font-family="Helvetica-Light,Helvetica" font-size="38.0" fill="#1497FC" transform="matrix(1.00, 0.00, -0.00, -1.00, 482.8, 53.2)">l</text><text xml:space="preserve" font-family="Helvetica-Light,Helvetica" font-size="38.0" fill="#1497FC" transform="matrix(1.00, 0.00, -0.00, -1.00, 491.2, 53.2)">o</text><text xml:space="preserve" font-family="Helvetica-Light,Helvetica" font-size="38.0" fill="#1497FC" transform="matrix(1.00, 0.00, -0.00, -1.00, 512.3, 53.2)">o</text><text xml:space="preserve" font-family="Helvetica-Light,Helvetica" font-size="38.0" fill="#1497FC" transform="matrix(1.00, 0.00, -0.00, -1.00, 533.4, 53.2)">p</text><text xml:space="preserve" font-family="Helvetica-Light,Helvetica" font-size="38.0" fill="#1497FC" transform="matrix(1.00, 0.00, -0.00, -1.00, 556.7, 53.2)">b</text><text xml:space="preserve" font-family="Helvetica-Light,Helvetica" font-size="38.0" fill="#1497FC" transform="matrix(1.00, 0.00, -0.00, -1.00, 579.9, 53.2)">a</text><text xml:space="preserve" font-family="Helvetica-Light,Helvetica" font-size="38.0" fill="#1497FC" transform="matrix(1.00, 0.00, -0.00, -1.00, 601.0, 53.2)">c</text><text xml:space="preserve" font-family="Helvetica-Light,Helvetica" font-size="38.0" fill="#1497FC" transform="matrix(1.00, 0.00, -0.00, -1.00, 622.1, 53.2)">k</text><text xml:space="preserve" font-family="Helvetica-Light,Helvetica" font-size="38.0" fill="#1497FC" transform="matrix(1.00, 0.00, -0.00, -1.00, 641.1, 53.2)">.</text><text xml:space="preserve" font-family="Helvetica-Light,Helvetica" font-size="38.0" fill="#1497FC" transform="matrix(1.00, 0.00, -0.00, -1.00, 651.7, 53.2)">i</text><text xml:space="preserve" font-family="Helvetica-Light,Helvetica" font-size="38.0" fill="#1497FC" transform="matrix(1.00, 0.00, -0.00, -1.00, 660.1, 53.2)">o</text><text xml:space="preserve" font-family="Helvetica-Light,Helvetica" font-size="38.0" fill="#1497FC" transform="matrix(1.00, 0.00, -0.00, -1.00, 681.3, 53.2)">/</text><text xml:space="preserve" font-family="Helvetica-Light,Helvetica" font-size="38.0" fill="#1497FC" transform="matrix(1.00, 0.00, -0.00, -1.00, 691.8, 53.2)">r</text><text xml:space="preserve" font-family="Helvetica-Light,Helvetica" font-size="38.0" fill="#1497FC" transform="matrix(1.00, 0.00, -0.00, -1.00, 703.8, 53.2)">e</text><text xml:space="preserve" font-family="Helvetica-Light,Helvetica" font-size="38.0" fill="#1497FC" transform="matrix(1.00, 0.00, -0.00, -1.00, 724.9, 53.2)">s</text><text xml:space="preserve" font-family="Helvetica-Light,Helvetica" font-size="38.0" fill="#1497FC" transform="matrix(1.00, 0.00, -0.00, -1.00, 743.9, 53.2)">o</text><text xml:space="preserve" font-family="Helvetica-Light,Helvetica" font-size="38.0" fill="#1497FC" transform="matrix(1.00, 0.00, -0.00, -1.00, 765.1, 53.2)">u</text><text xml:space="preserve" font-family="Helvetica-Light,Helvetica" font-size="38.0" fill="#1497FC" transform="matrix(1.00, 0.00, -0.00, -1.00, 786.2, 53.2)">r</text><text xml:space="preserve" font-family="Helvetica-Light,Helvetica" font-size="38.0" fill="#1497FC" transform="matrix(1.00, 0.00, -0.00, -1.00, 798.2, 53.2)">c</text><text xml:space="preserve" font-family="Helvetica-Light,Helvetica" font-size="38.0" fill="#1497FC" transform="matrix(1.00, 0.00, -0.00, -1.00, 819.3, 53.2)">e</text><text xml:space="preserve" font-family="Helvetica-Light,Helvetica" font-size="38.0" fill="#1497FC" transform="matrix(1.00, 0.00, -0.00, -1.00, 840.4, 53.2)">s</text><text xml:space="preserve" font-family="Helvetica-Light,Helvetica" font-size="38.0" fill="#1497FC" transform="matrix(1.00, 0.00, -0.00, -1.00, 859.4, 53.2)">/</text><g><clipPath id="clip0x6080016ab1c0"><path d="M 384.6 48.4 L 870.0 48.4 L 870.0 52.3 L 384.6 52.3 Z M 384.6 48.4 "></path></clipPath><g clip-path="url(#clip0x6080016ab1c0)"><path d="M 310.6 70.1 L 795.0 70.1 " fill="none" stroke="#1497FC" stroke-width="1.90" transform="matrix(1.00, 0.00, 0.00, -1.00, 75.0, 120.5)"></path></g></g><text xml:space="preserve" font-family="Helvetica-Light,Helvetica" font-size="57.0" fill="#FEFFFF" transform="matrix(1.00, 0.00, -0.00, -1.00, 218.0, 397.1)">E</text><text xml:space="preserve" font-family="Helvetica-Light,Helvetica" font-size="57.0" fill="#FEFFFF" transform="matrix(1.00, 0.00, -0.00, -1.00, 252.8, 397.1)">x</text><text xml:space="preserve" font-family="Helvetica-Light,Helvetica" font-size="57.0" fill="#FEFFFF" transform="matrix(1.00, 0.00, -0.00, -1.00, 281.3, 397.1)">p</text><text xml:space="preserve" font-family="Helvetica-Light,Helvetica" font-size="57.0" fill="#FEFFFF" transform="matrix(1.00, 0.00, -0.00, -1.00, 316.1, 397.1)">r</text><text xml:space="preserve" font-family="Helvetica-Light,Helvetica" font-size="57.0" fill="#FEFFFF" transform="matrix(1.00, 0.00, -0.00, -1.00, 334.1, 397.1)">e</text><text xml:space="preserve" font-family="Helvetica-Light,Helvetica" font-size="57.0" fill="#FEFFFF" transform="matrix(1.00, 0.00, -0.00, -1.00, 365.8, 397.1)">s</text><text xml:space="preserve" font-family="Helvetica-Light,Helvetica" font-size="57.0" fill="#FEFFFF" transform="matrix(1.00, 0.00, -0.00, -1.00, 394.3, 397.1)">s</text><text xml:space="preserve" font-family="Helvetica-Light,Helvetica" font-size="57.0" fill="#FEFFFF" transform="matrix(1.00, 0.00, -0.00, -1.00, 422.8, 397.1)">,</text><text xml:space="preserve" font-family="Helvetica-Light,Helvetica" font-size="57.0" fill="#FEFFFF" transform="matrix(1.00, 0.00, -0.00, -1.00, 438.6, 397.1)"> </text><text xml:space="preserve" font-family="Helvetica-Light,Helvetica" font-size="57.0" fill="#FEFFFF" transform="matrix(1.00, 0.00, -0.00, -1.00, 454.5, 397.1)">H</text><text xml:space="preserve" font-family="Helvetica-Light,Helvetica" font-size="57.0" fill="#FEFFFF" transform="matrix(1.00, 0.00, -0.00, -1.00, 495.6, 397.1)">a</text><text xml:space="preserve" font-family="Helvetica-Light,Helvetica" font-size="57.0" fill="#FEFFFF" transform="matrix(1.00, 0.00, -0.00, -1.00, 527.3, 397.1)">p</text><text xml:space="preserve" font-family="Helvetica-Light,Helvetica" font-size="57.0" fill="#FEFFFF" transform="matrix(1.00, 0.00, -0.00, -1.00, 562.2, 397.1)">i</text><text xml:space="preserve" font-family="Helvetica-Light,Helvetica" font-size="57.0" fill="#FEFFFF" transform="matrix(1.00, 0.00, -0.00, -1.00, 574.8, 397.1)">J</text><text xml:space="preserve" font-family="Helvetica-Light,Helvetica" font-size="57.0" fill="#FEFFFF" transform="matrix(1.00, 0.00, -0.00, -1.00, 603.3, 397.1)">S</text><text xml:space="preserve" font-family="Helvetica-Light,Helvetica" font-size="57.0" fill="#FEFFFF" transform="matrix(1.00, 0.00, -0.00, -1.00, 638.1, 397.1)">,</text><text xml:space="preserve" font-family="Helvetica-Light,Helvetica" font-size="57.0" fill="#FEFFFF" transform="matrix(1.00, 0.00, -0.00, -1.00, 654.0, 397.1)"> </text><text xml:space="preserve" font-family="Helvetica-Light,Helvetica" font-size="57.0" fill="#FEFFFF" transform="matrix(1.00, 0.00, -0.00, -1.00, 669.8, 397.1)">S</text><text xml:space="preserve" font-family="Helvetica-Light,Helvetica" font-size="57.0" fill="#FEFFFF" transform="matrix(1.00, 0.00, -0.00, -1.00, 704.7, 397.1)">a</text><text xml:space="preserve" font-family="Helvetica-Light,Helvetica" font-size="57.0" fill="#FEFFFF" transform="matrix(1.00, 0.00, -0.00, -1.00, 736.4, 397.1)">i</text><text xml:space="preserve" font-family="Helvetica-Light,Helvetica" font-size="57.0" fill="#FEFFFF" transform="matrix(1.00, 0.00, -0.00, -1.00, 749.0, 397.1)">l</text><text xml:space="preserve" font-family="Helvetica-Light,Helvetica" font-size="57.0" fill="#FEFFFF" transform="matrix(1.00, 0.00, -0.00, -1.00, 761.7, 397.1)">s</text><text xml:space="preserve" font-family="Helvetica-Light,Helvetica" font-size="57.0" fill="#FEFFFF" transform="matrix(1.00, 0.00, -0.00, -1.00, 790.2, 397.1)">,</text><text xml:space="preserve" font-family="Helvetica-Light,Helvetica" font-size="57.0" fill="#FEFFFF" transform="matrix(1.00, 0.00, -0.00, -1.00, 806.0, 397.1)"> </text><text xml:space="preserve" font-family="Helvetica-Light,Helvetica" font-size="57.0" fill="#FEFFFF" transform="matrix(1.00, 0.00, -0.00, -1.00, 313.5, 329.1)">R</text><text xml:space="preserve" font-family="Helvetica-Light,Helvetica" font-size="57.0" fill="#FEFFFF" transform="matrix(1.00, 0.00, -0.00, -1.00, 351.5, 329.1)">e</text><text xml:space="preserve" font-family="Helvetica-Light,Helvetica" font-size="57.0" fill="#FEFFFF" transform="matrix(1.00, 0.00, -0.00, -1.00, 383.2, 329.1)">s</text><text xml:space="preserve" font-family="Helvetica-Light,Helvetica" font-size="57.0" fill="#FEFFFF" transform="matrix(1.00, 0.00, -0.00, -1.00, 411.7, 329.1)">t</text><text xml:space="preserve" font-family="Helvetica-Light,Helvetica" font-size="57.0" fill="#FEFFFF" transform="matrix(1.00, 0.00, -0.00, -1.00, 427.5, 329.1)">i</text><text xml:space="preserve" font-family="Helvetica-Light,Helvetica" font-size="57.0" fill="#FEFFFF" transform="matrix(1.00, 0.00, -0.00, -1.00, 440.2, 329.1)">f</text><text xml:space="preserve" font-family="Helvetica-Light,Helvetica" font-size="57.0" fill="#FEFFFF" transform="matrix(1.00, 0.00, -0.00, -1.00, 456.0, 329.1)">y</text><text xml:space="preserve" font-family="Helvetica-Light,Helvetica" font-size="57.0" fill="#FEFFFF" transform="matrix(1.00, 0.00, -0.00, -1.00, 479.3, 329.1)">,</text><text xml:space="preserve" font-family="Helvetica-Light,Helvetica" font-size="57.0" fill="#FEFFFF" transform="matrix(1.00, 0.00, -0.00, -1.00, 495.1, 329.1)"> </text><text xml:space="preserve" font-family="Helvetica-Light,Helvetica" font-size="57.0" fill="#FEFFFF" transform="matrix(1.00, 0.00, -0.00, -1.00, 511.0, 329.1)">M</text><text xml:space="preserve" font-family="Helvetica-Light,Helvetica" font-size="57.0" fill="#FEFFFF" transform="matrix(1.00, 0.00, -0.00, -1.00, 558.5, 329.1)">e</text><text xml:space="preserve" font-family="Helvetica-Light,Helvetica" font-size="57.0" fill="#FEFFFF" transform="matrix(1.00, 0.00, -0.00, -1.00, 590.1, 329.1)">t</text><text xml:space="preserve" font-family="Helvetica-Light,Helvetica" font-size="57.0" fill="#FEFFFF" transform="matrix(1.00, 0.00, -0.00, -1.00, 606.0, 329.1)">e</text><text xml:space="preserve" font-family="Helvetica-Light,Helvetica" font-size="57.0" fill="#FEFFFF" transform="matrix(1.00, 0.00, -0.00, -1.00, 637.7, 329.1)">o</text><text xml:space="preserve" font-family="Helvetica-Light,Helvetica" font-size="57.0" fill="#FEFFFF" transform="matrix(1.00, 0.00, -0.00, -1.00, 669.4, 329.1)">r</text><text xml:space="preserve" font-family="Helvetica-Light,Helvetica" font-size="57.0" fill="#FEFFFF" transform="matrix(1.00, 0.00, -0.00, -1.00, 688.4, 329.1)">*</text></g></svg>